<?xml version="1.0" standalone="no"?>
<!DOCTYPE svg PUBLIC "-//W3C//DTD SVG 1.1//EN" "http://www.w3.org/Graphics/SVG/1.1/DTD/svg11.dtd" >
<svg xmlns="http://www.w3.org/2000/svg">
<metadata>
This is a custom SVG webfont generated by Font Squirrel.
Copyright   : Copyright c ShyFonts Type Foundry 2000 All rights reserved
Designer    : ShyFonts Type Foundry
Foundry URL : httpwwwshyfontscom
</metadata>
<defs>
<font id="webfont3qVQiNz3" horiz-adv-x="913" >
<font-face units-per-em="2048" ascent="1638" descent="-410" />
<missing-glyph horiz-adv-x="921" />
<glyph unicode=" "  horiz-adv-x="921" />
<glyph unicode="&#x09;" horiz-adv-x="921" />
<glyph unicode="&#xa0;" horiz-adv-x="921" />
<glyph unicode="!" horiz-adv-x="616" d="M154 51q0 8 71 45q70 37 88 37q23 0 152 -53q-4 -12 -72 -47q-63 -33 -83.5 -33t-88 22.5t-67.5 28.5zM236 268q0 -7 2 1q1 5 4 16q0 2 1 7t2 16t1 24q0 14 4 56t6 69q9 108 12 209q4 135 4 198q0 178 -14 287l-12 100q0 10 -1 19.5t-2 14.5l-1 5q0 8 67 39q76 35 94 37 q14 -12 27 -199l8 -133q2 -37 2 -90q0 -65 -12 -313q-16 -272 -20 -287q-8 -20 -74 -51q-65 -31 -92 -31q-6 0 -6 6z" />
<glyph unicode="&#x22;" horiz-adv-x="757" d="M154 1260q0 8 1 19l1 3q0 20 65 51q37 16 60 23q6 2 14 4t14 4t10 2v-45q2 -20 5 -66l4 -61q0 -10 1 -24.5t1 -20.5q0 -66 -11 -96q-9 -22 -73 -49q-29 -16 -90 -33v33q0 6 1 20t1 23q2 33 2 75q0 39 -2 70q-4 62 -4 68zM432 1282q0 18 72 53q76 31 94 31v-57 q0 -47 2 -78q2 -53 4 -80q0 -12 1 -30.5t1 -24.5q0 -27 -6 -45.5t-72 -46.5q-61 -29 -92 -33q-4 0 -4 18q0 4 1 13.5t1 15.5q0 25 2 39q2 23 4 39q0 6 1 14t1 12q0 6 -1 21.5t-1 25.5q-2 29 -4 70q-2 16 -2 37q0 6 -2 6z" />
<glyph unicode="#" horiz-adv-x="1486" d="M154 938q-4 10 49 41q74 43 108 43h51h117q0 86 17 240q8 23 73 51q23 10 56 20q29 8 37 8q0 -10 -3 -26q0 -12 -2 -32.5t-4 -45.5q-12 -119 -12 -213q66 2 115 4q61 0 84 2q0 53 6 115q10 92 16 137q10 25 76 53q76 31 88 31q0 -12 -2 -29l-6 -75q-8 -84 -10 -117 q-4 -74 -4 -103q82 6 94 9q14 2 59 5t72 7q18 3 43 6q12 2 27.5 4l31.5 4l2 -2q-12 -18 -51 -39q-68 -41 -278 -61v-25v-55q0 -10 1 -43t1 -55l190 16q74 6 100 6h13q2 0 6 -1t8 -1q-14 -16 -49 -39q-61 -37 -131 -43l-32.5 -4t-35.5 -2q-10 0 -34.5 -2t-34.5 -2v-104 q0 -16 1 -46t1 -44.5t-70 -49.5t-90 -35q-8 14 -10 267l-201 -21v-94q0 -55 -4 -68q-6 -18 -72 -49l-55 -24q-6 -2 -37 -11q-4 6 -4 48v38q0 16 4 54q2 43 2 92q-156 -12 -309 -12l-2 2q0 6 53 37q68 39 127 40l131 7q0 49 2 79q2 16 3 54.5t1 56.5q-102 -2 -182 -4h-141z M639 764q12 2 40 3t42 1q14 2 46 5t71 5q-3 108 0 178q-10 -2 -36 -3t-38 -1q-49 -3 -123 -6v-76q0 -65 -2 -106z" />
<glyph unicode="$" horiz-adv-x="993" d="M154 1110q2 12 67 49q61 35 86 35q33 0 47 -84l45 10v21v59q0 10 -1 24.5t-1 20.5q0 10 -2 20.5t-2 20.5q0 16 68 47q70 31 92 33q6 0 6 -16q0 -4 4 -45q2 -10 2 -27q0 -4 1 -11t1 -10q0 -6 -1 -23t-1 -26l-6 -55q10 2 44 6t56 8q35 4 140 21l4 1q4 1 6 1q4 0 16 4l4 -4 q-12 -18 -23 -31.5t-15 -17.5q-14 -16 -21 -27q-27 -37 -41 -80q-3 -9 -6 -24q0 -4 -2 -8.5t-3 -7.5t-2 -9t-3 -10q-6 -20 -97 -57q-49 -20 -63 -21q-6 0 -6 6q0 68 35 131q20 45 67 76q-23 -2 -52.5 -7l-66.5 -11q-6 -2 -68.5 -11.5t-99.5 -17.5q12 -74 13 -135 q0 -106 -29 -256q82 16 272 16q137 0 211 -37h2v-39q2 -23 4.5 -55.5t4.5 -54.5q0 -8 1 -21.5t1 -17.5q0 -157 -43 -221q-27 -39 -166 -76q-39 35 -74 47q0 -111 -8 -133q-9 -22 -74 -49q-12 -6 -33 -15l-20 -8q-18 -8 -39 -8q0 2 1 9t1 11v33q4 49 4 53q0 2 -1 9.5t-1 11.5 q-2 12 -4 29q-2 12 -2 28v21q0 16 2 18v2q-6 0 -11 -1t-12 -1q-10 0 -26 -4q-20 -14 -76 -37q-47 -18 -76 -22q0 14 6.5 45t6.5 49q0 33 -21 80q2 16 72 47q70 33 90 33q25 -18 24 -80q0 -4 -1 -13.5t-1 -13.5q0 -16 -2 -24q84 12 158 20q82 8 90 8q29 0 66 -6q0 4 1 11.5 t1 11.5v28q0 49 -2 84q-6 100 -8 129q-53 37 -183 37q-102 0 -198 -8q-37 0 -103 -6q18 137 21 153q6 66 6 107q0 217 -53 258z" />
<glyph unicode="%" horiz-adv-x="1585" d="M154 1221q0 16 67 47q72 33 92 32q10 0 97 13l233 33q4 2 49 10q12 2 39 5t35 5q-10 -66 -10 -96l2 -38v-5q0 -16 4 -176q2 -63 6 -142q2 -49 10 -112q63 123 88 178l66 153q4 20 22 68q20 51 39 92q12 20 72 47q59 29 88 31l4 -4v-2q0 -2 -2 -9.5t-4 -13.5q-2 -2 -5 -10 t-6 -15t-5 -16q-35 -100 -101 -235l-168 -336q27 16 52 16q35 0 311 37q52 3 147 25v-23v-59q0 -12 -1 -41t-1 -45.5t-1 -45t-1 -38.5v-59q0 -238 39 -394l23 -10q-8 -20 -76 -53q-70 -35 -90 -35q-18 0 -23 18q-88 35 -287 35h-71q-23 0 -92 -14q-6 2 -7 16q0 -5 1 -2 q1 8 2 13l5 26q5 27 7 49q2 6 6 92q2 35 2 119q0 33 -4 111q-3 58 -12 123l-70 -142l-94 -200l-25 -72q-4 -12 -39 -96q-14 -20 -69 -47q-63 -29 -90 -29l-5 2v2q0 6 19 55q39 109 90 217l143 291q-98 45 -276 45q-152 0 -156 -2q-2 0 -8 -2t-10 -2q-10 -4 -25 -8q0 2 4 35 q0 6 2 29.5t4 39.5q8 96 11 115q4 70 4 94q0 16 -4 82q-4 51 -13 121q0 16 -6 39l-16 49l-8 13zM348 690q57 4 80 4q12 0 38 1t36 1q6 0 22.5 -1t26.5 -1q27 -2 61 -4q-10 59 -12 125q-4 90 -4 143v93q0 190 10 227q-14 -4 -90 -14q-18 -2 -62 -9.5t-106 -13.5 q20 -94 21 -240q-1 -141 -21 -311zM956 131q86 6 166 6q10 0 27.5 -1t26.5 -1q35 0 49 -2q-6 51 -15 139q-6 72 -6 140q0 267 13 307q-92 -18 -259 -37q23 -113 23 -242q0 -47 -6 -125q-7 -76 -19 -184z" />
<glyph unicode="&#x26;" horiz-adv-x="1015" d="M102 1284q0 14 70 47q74 35 90 35q25 0 37 -113q334 113 498 113q0 -4 -17 -16q-53 -41 -65 -84q-8 -23 -10 -97q0 -47 -21 -75q-16 -25 -78 -50q-27 -14 -92 -30q2 186 113 276l-135 -30l-189 -46q12 -190 19 -335q4 -94 4 -236q31 0 88 -6q58 -6 86 -6h57q8 0 22.5 1 t20.5 1v39q0 35 6 53q6 16 74 49q70 33 90 33q0 -57 -4 -162q12 0 43 3t45 3h59l2 -2q-6 -18 -67 -49q-12 -6 -33 -14l-20 -8q-12 -6 -37 -11q0 -8 -1 -30.5t-1 -36.5v-94q0 -20 1 -59.5t1 -57.5q0 -4 6 -103q2 -27 3 -47t1 -28q2 -16 2 -29q0 -25 -65 -51q-4 -2 -60 -23 q-23 -8 -39 -8q-55 80 -194 80q-16 0 -58 -4q-45 -4 -65 -8q-29 -23 -76 -41q-49 -23 -80 -27v2q0 35 2 70q0 10 2 35.5t3 52t3 53.5q8 162 11 229q4 143 4 207q0 158 -17 416q-6 90 -20 145zM299 127q82 14 182 27q74 9 111 6v39v39v155v66q0 23 4 104q-23 -2 -86.5 -5 t-89.5 -5q-45 -2 -96 -2q-3 -120 -25 -424z" />
<glyph unicode="'" horiz-adv-x="479" d="M154 971v2v31q0 6 1 20t1 23v45q0 6 1 16t1 14t-1 15.5t-1 19.5v45q0 8 -1 24.5t-1 22.5v33q0 20 67 51q41 18 58 23q6 2 14 4t14 4t10 2q0 -6 1 -20.5t1 -24.5v-30.5t3 -35.5q6 -72 6 -106q0 -72 -11 -96q-9 -22 -73 -49q-35 -17 -90 -33z" />
<glyph unicode="(" horiz-adv-x="724" d="M154 612q0 184 59 357q63 199 195 313q88 78 159 84l6 -2l-18 -16q-25 -25 -86 -117q-150 -229 -150 -526q0 -221 84 -445q37 -98 74 -156q10 -16 10 -18q0 -18 -69 -51q-12 -6 -33 -15l-20 -8q-20 -8 -39 -12q-172 266 -172 612z" />
<glyph unicode=")" horiz-adv-x="688" d="M154 0q8 16 14 25q2 4 8 14t10 16q184 260 185 635q0 217 -74 414q-35 88 -72 149q-12 20 -12 27q0 20 68 51q61 29 92 35q76 -92 123 -287q41 -174 41 -309q0 -305 -156 -594q-39 -61 -64 -96q-20 -25 -75 -51q-31 -14 -49 -21q-29 -8 -39 -8z" />
<glyph unicode="*" horiz-adv-x="1148" d="M154 1075q0 14 69 47q74 35 88 35q33 0 176 -92v12q0 45 -2 80v82q0 35 4 47q6 16 72 47q70 33 96 33v-80q0 -14 -1 -48t-1 -54q0 -25 -1 -64t-1 -53v-68l66 66l65 65q90 78 168 80l4 -4q-6 -18 -292 -270l84 -70l122 -96q6 -6 21.5 -15.5t21.5 -15.5l60 -43l22 -14 q0 -10 -69 -45q-78 -37 -88 -37q-20 0 -191 133v-90q0 -76 -8 -98q-10 -23 -78 -49q-14 -8 -90 -31q0 31 2 53q6 43 6 55q4 49 4 89q0 14 1 52t1 60l-49 -47l-47 -45q-63 -55 -119 -76q-8 -4 -20 -7t-17 -5q-16 -6 -26 -6l-4 4q10 23 282 262v10q-188 150 -321 203 q-10 4 -10 8z" />
<glyph unicode="+" horiz-adv-x="1095" d="M154 602q2 10 32 27q88 53 271 78q4 33 4 75v123q0 16 67 47q66 29 95 33q8 -10 8 -55q0 -66 -2 -99q-4 -70 -8 -104q74 6 96 6h135h51q16 0 37 -4l2 -2q-2 -12 -68 -47q-63 -33 -86 -33h-36h-52q-10 0 -27.5 1t-23.5 1h-37q-2 -16 -2 -63q0 -12 -1 -45t-1 -54 q0 -16 -69 -47q-76 -33 -99 -32v24q0 4 -1 9t-1 8v8q0 4 4 65q2 16 5.5 58.5t5.5 60.5l-70 -8q-18 -2 -65.5 -9.5l-71.5 -11.5q-25 -2 -88 -12z" />
<glyph unicode="," horiz-adv-x="479" d="M154 45v27v26q2 10 65.5 41t93.5 31q4 0 4 -6v-27q0 -8 5 -37q2 -10 2 -19v-18q0 -6 1 -14t1 -10v-53q0 -57 -9 -82q-6 -23 -69 -49q-63 -31 -94 -31v26q0 4 1 17.5t1 21.5v37q0 6 1 15.5t1 13.5q0 2 -1 10t-1 15v32q0 8 -1 18.5t-1 14.5z" />
<glyph unicode="-" horiz-adv-x="1003" d="M154 629q0 16 67 47q57 25 90 31q41 6 109 8q29 2 108.5 5l130.5 5q33 0 64 1t52.5 2t36.5 1h20h18v-2q0 -14 -66 -45q-61 -29 -92 -33q-83 -12 -233 -12q-31 0 -79 -1t-65 -1q-47 0 -92 -4q-16 -4 -28 -4q-27 -4 -39 -4l-1 2q-1 2 -1 4z" />
<glyph unicode="." horiz-adv-x="620" d="M154 57q0 14 69 47q74 35 92 35q23 0 154 -53q-4 -10 -73.5 -45t-84.5 -35q-16 0 -88 23q-69 20 -69 28z" />
<glyph unicode="/" horiz-adv-x="856" d="M51 0q4 16 21 59q27 72 78 185q55 123 106 219l104 196l103 197q47 96 78 174q74 180 86 215l6 19q6 18 8 22q12 27 69.5 51.5t90.5 28.5l6 -6q-20 -59 -82 -207q-37 -90 -109 -235l-110 -216l-109 -217l-57 -118l-76 -166q-16 -59 -47 -127q-20 -27 -72 -49 q-18 -8 -51 -16.5t-43 -8.5z" />
<glyph unicode="0" horiz-adv-x="933" d="M102 1176q0 16 72 53q72 35 94 28q80 14 211 43q100 20 291 66l6 -14q-10 -442 -10 -547q0 -227 10 -373q10 -158 35 -328l23 -18q-18 -25 -84 -55q-65 -31 -99 -31q-8 0 -8 25q-102 66 -305 65q-10 0 -30.5 -1t-31.5 -1q-41 0 -63 -2q-55 -25 -80 -27q0 35 2 66 q6 102 8 119q8 117 13 237q4 160 4 238q0 311 -29 391q0 2 -4 10l-12 23q-13 19 -13 33zM291 1212q2 -8 10 -59q4 -31 8 -100q8 -166 13 -232q0 -23 1 -47t2 -37.5t1 -19.5q0 -106 -7 -244q-2 -59 -20 -309q119 12 195 12q39 0 61 -2q49 -4 72 -8q-16 145 -23 270 q-6 138 -6 289q0 512 18 557q-14 -4 -54 -13l-62 -14z" />
<glyph unicode="1" horiz-adv-x="407" d="M102 8h2q0 2 1 9.5t4 15.5q0 2 1 10t2 23.5t1 31.5q0 18 4 74.5t6 93.5q9 154 12 277q4 164 4 215q0 162 -14 346q0 10 -4 47q0 4 -2 28.5t-4 39.5l-6 47q-2 12 -3 20q0 23 70 49q61 25 98 31q31 -261 31 -528q0 -82 -2 -148q-6 -215 -8 -252q-12 -342 -21 -352 q-25 -29 -73 -53q-59 -31 -95 -33q-4 4 -4 8z" />
<glyph unicode="2" horiz-adv-x="927" d="M102 555q84 61 138 80q49 14 168 14q96 0 135 -2q43 -2 98 -10q0 8 1 36.5t1 47.5q0 20 3 64t3 59q2 63 6 119q2 35 2 88q0 143 -18 229q-2 0 -12.5 -3t-35 -8t-48.5 -12l-267 -59v-14q0 -2 1.5 -9.5t1.5 -11.5v-30q0 -51 -11 -76q-10 -27 -69 -53q-63 -31 -93 -33l-4 2 q0 41 2 74q4 33 5 45v30v35q0 12 -5 45q-2 35 -2 80q0 20 68 51q41 18 57 23l41 10v-27q0 -6 4 -34q2 -14 2 -35q0 -6 1 -15.5t1 -11.5q33 6 207 45q78 18 287 72q22 6 25 6t12 -18q18 -57 18 -220q0 -55 -2 -90l-8 -125q-8 -125 -8 -213v-26q0 -4 1 -17.5t1 -21.5t1 -20.5 t1 -16.5v-29q0 -20 -63 -51q-65 -31 -93 -31l-2 2h-6q-109 72 -340 78q18 -96 19 -196q0 -39 -4 -117q-2 -39 -15 -125q209 35 273 35q4 0 12 -1t14 -1q8 -2 16.5 -2h18.5q-2 8 -2 23.5t-2 23.5q-2 16 -6 41q0 6 -1 15t-3 13q-2 8 -2 15q0 16 69.5 47t96.5 35l2 -2 q16 -39 16 -199q0 -61 -10 -88q-10 -20 -72 -49q-66 -33 -88 -35q-2 2 -6 7t-8 9q-8 10 -21 23q-45 41 -180 41q-45 0 -68 -2q-45 -4 -67 -8q-90 -66 -156 -70l1 3q1 3 2 9t1 13q2 16 10 69q14 86 15 189q-1 221 -60 272z" />
<glyph unicode="3" horiz-adv-x="954" d="M102 973v31q0 10 4 43v23t3 22q0 6 1 16t1 14t-1 16.5t-1 18.5q-2 10 -2.5 20.5t-0.5 24.5q-4 33 -4 45v35q0 16 72 51q35 18 55 23q6 2 14.5 4t14.5 4t10 2q4 -4 8 -123q37 14 113 37q82 23 139 35l258 51v-14v-113q-2 -61 -4 -160q-4 -123 -4 -157v-113q0 -428 51 -715 l25 -8q-10 -14 -25 -25q-18 -12 -51 -28q-70 -33 -94 -33q-63 51 -297 51q-88 0 -133 -10l-51 -21q-10 -4 -36 -10t-38 -10q0 23 6 66q6 46 6 67q0 25 -10 57q-10 41 -10 57.5t69 45.5q70 27 97 31q23 -41 22 -111q0 -31 -2 -51q-4 -41 -8 -68q133 41 270 41q6 0 19.5 -1 t19.5 -1q25 0 37 -2q-12 80 -22 227q-6 86 -11 263h-6q-18 0 -84 -5q-57 -4 -121 -12q-129 -14 -202 -14l20 14l15.5 10.5t19.5 12.5q63 37 104 45q29 0 252 16v105q0 18 1 67t1 78t1 78t1 67v105q0 63 9 90q-70 -10 -146 -27q-25 -6 -92.5 -19t-108.5 -22v-18q0 -4 1.5 -11 t1.5 -14v-41q0 -55 -9 -73q-8 -20 -69 -47q-68 -27 -97 -35z" />
<glyph unicode="4" horiz-adv-x="886" d="M51 1282q4 20 69.5 51t92.5 33l2 -2q29 -39 39 -166q8 -109 12 -182q4 -94 4 -101q0 -150 -24 -438q158 31 325 23v71q0 12 -1 42t-1 49v94q0 18 1 62t1 70.5t1 72t1 61.5v94v19q0 4 -1 12t-1 14v45q0 51 7 74q10 25 71 51q68 33 92 35l4 -2v-115q-2 -61 -4 -162 q-4 -123 -4 -161v-115q0 -96 4 -260q2 -90 15 -232q4 -74 14 -167q2 -12 4 -21.5t3 -12.5t2 -8.5t3 -11.5l2 -18q0 -16 -69 -47q-76 -33 -97 -33q-16 45 -38 365q-137 55 -205 55q-57 0 -86 -2q-61 -4 -92 -8q-37 -18 -117 -45q0 27 2 51q0 8 2 42t4 56q16 209 16 313l-4 99 q0 10 -14 200q-4 49 -4 58v11t-1 8l-1 3q-11 45 -29 76z" />
<glyph unicode="5" horiz-adv-x="897" d="M102 1284q0 14 70 47q74 35 90 35q31 0 43 -106q307 100 473 106l-16 -16q-68 -55 -74 -125q-10 -106 -22 -129q-12 -25 -78 -52q-27 -10 -90 -30q0 180 110 272l-125 -26l-174 -39q14 -129 15 -224q0 -133 -25 -354q102 20 272 21q141 0 209 -33q14 -106 15 -254 q0 -215 -43 -289q-14 -27 -74 -57q-55 -31 -92 -31q-61 94 -191 94q-41 0 -96 -8q-4 -20 -68 -51q-68 -33 -94 -35q0 4 1 14.5t1 16.5v20t2 21q2 23 4 41q0 6 1 15t1 13q0 18 -12 58q-10 33 -10 59q0 14 74 45q76 31 96 31q20 -41 20 -111v-37q0 -8 -3 -24.5t-3 -20.5 q76 14 156 27q55 8 90 8h31q8 0 32 -4q4 45 5 72q0 12 1 36.5t1 36.5q0 76 -9 222q-49 43 -180 43q-80 0 -207 -13q-68 -33 -98 -32q4 29 6 49q4 31 8 73q12 111 13 250q0 45 -8 135q-6 68 -19 136q0 2 -1 6t-3 11t-4 13q-11 41 -21 74z" />
<glyph unicode="6" horiz-adv-x="911" d="M102 0q0 29 9 92q29 283 39 438q14 233 14 367q0 6 -1 25.5t-1 31.5q-2 16 -2 37v45q-4 66 -4 82v58q0 20 -6.5 55t-6.5 51t72 51q70 31 94 33q8 -25 13 -111q342 111 473 111q-53 -84 -82 -180l-11 -41q-6 -25 -18 -55q-14 -27 -76 -52q-29 -10 -39 -14q-6 -2 -24.5 -6 t-30.5 -8q2 182 113 272l-127 -25l-176 -36l6 -123q0 -20 1 -60.5t1 -60.5q0 -35 -4 -150q0 -29 -11 -194q98 18 285 18q74 0 123 -12q25 -10 76 -18v-54q2 -39 4 -73q6 -86 6 -129q0 -225 -43 -285q-14 -20 -72 -47q-63 -31 -88 -33q-8 12 -35 41q-41 41 -159 41 q-23 0 -76 -4q-37 -2 -84 -12q-97 -60 -152 -66zM274 119q115 47 297 47q31 0 64 -6q6 68 6 71v76v105q0 23 -3 64.5t-3 51.5q-53 41 -182 41h-68q-25 0 -70 -4q-2 -23 -6 -84t-8 -98q-4 -51 -11.5 -116.5t-15.5 -147.5z" />
<glyph unicode="7" horiz-adv-x="804" d="M102 6q0 3 19 49q86 229 223 492q-70 -16 -231 -39l-2 2q65 68 264 98l108 213l58 113q33 66 82 176q39 86 61 156q-104 -16 -346 -72v-14q0 -2 1 -8.5t1 -10.5v-33q0 -55 -10 -75q-8 -20 -72 -49q-61 -29 -94 -31q0 8 4 74q2 16 2 43v30q0 41 -4 72q-2 23 -4 41 q0 6 -1 16.5t-1 14.5q0 8 4 16q2 18 69 51q66 35 95 35q4 0 8 -10q2 -12 2 -92v-37q14 6 86 26l174 50l174 47q43 10 80 16q4 -2 4 -6q0 -70 -342 -729l59 12l28.5 8t29.5 6l63 11q37 4 56 4q2 0 6 -2q-6 -14 -37 -29q-63 -35 -113 -49l-41 -8q-10 -2 -80 -15l-67 -139 l-90 -194q-10 -53 -62 -160q-16 -25 -69 -47q-61 -27 -91 -29q-4 0 -4 6z" />
<glyph unicode="8" horiz-adv-x="978" d="M102 559q76 57 127 78q18 175 19 295q0 272 -51 350v2q0 14 67 47q70 35 88 35q33 0 45 -100q59 16 109 28q29 6 47 10.5t46 10.5l63 14q58 18 172 37q0 -94 -6.5 -278.5t-6.5 -276.5q0 -231 10 -367q12 -152 35 -284q2 -6 8 -47q2 -12 3 -25q0 -18 -70 -51 q-68 -33 -96 -37q-166 63 -312 63q-55 0 -129 -12q-90 -47 -137 -51l1 4q1 4 2 10t1 13q4 23 10 65q8 49 13 96q4 61 4 93q-1 227 -62 278zM303 102q115 39 279 39h53q10 0 30.5 -3t22.5 -3q-10 78 -22 242q-8 115 -9 285l-147 -31q-31 -8 -85 -19.5t-122 -27.5 q29 -109 29 -213q0 -81 -29 -269zM371 641q53 18 131 39q6 2 155 35q0 131 2 225q6 250 9 338l-113 -21q-35 -6 -75 -15t-81 -17q10 -98 11 -113q4 -66 4 -82q0 -20 -17 -276v-29q0 -4 -1 -16.5t-1 -16.5q-1 -39 -24 -51z" />
<glyph unicode="9" horiz-adv-x="921" d="M102 1282v2q0 14 70 47q70 35 86 35q37 0 49 -133q45 18 127 39q43 12 158 39q8 4 35 10q29 6 78 18q25 6 49 13.5l34 10.5l11 3q2 -6 2 -18q0 -27 6 -64q2 -16 2 -39q0 -6 1 -12t1 -8l6 -121q2 -39 2 -117q0 -141 -8 -346q-4 -119 -6 -201q-2 -57 -2 -143q0 -61 2 -109 q4 -45 4 -61v-45q0 -16 -68 -49q-72 -33 -90 -33l-45 29q-90 59 -186 59t-170 -43q-72 -41 -123 -45q4 29 10 94q0 10 1 19.5t2 14.5t1 7q0 20 -12 58q-10 33 -10 59q0 14 71 45q74 31 99 31q18 -34 18 -111q0 -35 -2 -55l-6 -64q154 72 276 72h29q6 0 31 -4q0 113 2 174 q2 78 6 199q-129 43 -207 43q-25 0 -64.5 -1t-56.5 -1q-39 0 -88 -5q-70 -31 -96 -32q0 18 2 39q0 12 3 32.5t5 47.5q16 168 17 253q-1 281 -56 367zM299 649q78 14 219 15h74h29q6 0 15 -1t13 -1q6 169 6 245q0 96 -6 187q-8 113 -14 172q-72 -12 -135 -27l-187 -41 q4 -33 9 -94q2 -33 2 -98q0 -142 -25 -357z" />
<glyph unicode=":" horiz-adv-x="626" d="M154 555q0 14 69 47q74 35 88.5 35t81.5 -23q63 -20 70 -30q-6 -14 -70 -47q-66 -31 -84 -31q-27 0 -88 20q-67 23 -67 29zM162 57q0 12 71 47q74 35 91 35q20 0 149 -53q-2 -12 -70 -45q-66 -35 -84 -35q-16 0 -88 23q-69 22 -69 28z" />
<glyph unicode=";" horiz-adv-x="620" d="M154 563q0 14 67 47q70 35 86 35q8 0 76 -24q18 -6 32.5 -12.5t24.5 -8.5l12.5 -4t10.5 -3t6 -1q-2 -12 -74 -47q-66 -33 -86 -33t-87.5 22.5t-67.5 28.5zM205 45v27v14q0 2 1 6t1 6q2 12 63 41q66 31 95 31q4 0 4 -6q0 -4 1 -12.5t1 -14.5q0 -23 2 -37q4 -29 4 -37v-24 v-53q0 -55 -8 -82q-10 -23 -70 -49q-12 -6 -32.5 -13.5t-22.5 -9.5q-18 -8 -39 -8v26q0 4 1 17.5t1 21.5v37q0 6 1 15.5t1 13.5q0 2 -1 10t-1 15v32q0 8 -1 18.5t-1 14.5z" />
<glyph unicode="&#x3c;" horiz-adv-x="991" d="M154 645v4q31 35 77 78q47 45 107 96l127 107l65 57l142 148q25 25 76 47q33 16 47 20q29 8 39 8l4 -4q-10 -18 -39 -49l-88 -88l-105 -88l-104 -88q-174 -150 -174 -168q0 -6 39 -39q12 -10 20 -18.5t23.5 -21.5t33.5 -32l123 -114l271 -256q-9 -15 -74 -49 q-66 -35 -84 -35q-2 0 -8 6q-23 14 -58 47l-102 96l-94 90l-135 127l-54 49z" />
<glyph unicode="=" horiz-adv-x="1087" d="M154 403v7q0 12 67 47q66 33 90 32q273 0 424 13q8 0 84 10q18 2 61.5 5t55.5 5v-8q-59 -59 -156 -78q-162 -33 -532 -33h-94zM170 633q6 14 53 39q55 33 107 41q29 4 90 8q74 4 127 4q8 0 33.5 -1t42.5 -1h106h180l2 -2q-14 -25 -73 -51q-61 -31 -86 -31h-140 q-16 0 -42.5 1t-37.5 1h-59h-106q-37 0 -95 -4q-25 -4 -41 -4q-12 -2 -26.5 -2h-30.5z" />
<glyph unicode="&#x3e;" horiz-adv-x="991" d="M154 164q6 10 141 137l156 148l219 200q-68 72 -201 182q-156 127 -207 179q-109 109 -108 118q0 16 69 48q12 6 33 14l20 8q22 9 37 12l6 -2q43 -55 103 -112l149 -133l166 -144q66 -57 101 -94l-80 -80q-18 -18 -105 -98l-123 -113l-67 -61q-39 -39 -64 -62l-88 -82 q-82 -59 -151 -69z" />
<glyph unicode="?" horiz-adv-x="1064" d="M154 51q0 14 71 45q74 33 94 35q41 -18 144 -51q-4 -12 -72 -47q-63 -33 -84 -33q-18 0 -85.5 22.5t-67.5 28.5zM193 973q0 4 1 14t1 17q0 27 2 43q4 33 4 43v30v33q0 14 -4 47q-2 16 -2 45q0 8 -1 19.5t-1 15.5q0 20 69 53q59 29 94 33q0 -2 1 -11t1 -16q2 -16 4 -36 q2 -10 2.5 -19.5t0.5 -15.5t1 -15.5t1 -11.5q143 27 495 119q18 6 23 6q2 0 12 -16q16 -53 16 -217q0 -51 -2 -89q-4 -90 -8 -126q-8 -129 -8 -216v-26q0 -25 2 -39q2 -23 4 -39q0 -6 1 -14.5t1 -12.5q0 -18 -67.5 -48.5t-94.5 -30.5q-4 0 -59 36q-51 35 -274 41 q4 -33 4 -71q0 -141 -21 -176q-14 -25 -78 -52q-27 -10 -90 -28q0 1 2 5q2 5 2 9q3 12 6 37q0 2 3.5 24.5t5.5 36.5q2 25 2 90q0 55 -13 78l-2 2l-4 4t-7 5.5t-7 5.5q-16 12 -16 18q0 4 18 16q78 53 143 68q51 10 166 10q141 0 207 -12q0 49 2 84q2 49 6 121q8 123 8 209 q0 139 -18 225l-152 -35l-99 -21.5l-109 -23.5q0 -131 -7 -149q-6 -20 -69 -48q-59 -25 -96 -32z" />
<glyph unicode="@" horiz-adv-x="1492" d="M154 641q0 218 190 369q252 197 520 196q209 0 344 -129q131 -125 131 -301q0 -135 -108 -221q-156 -125 -313 -125q-98 0 -130 68q-102 -53 -173.5 -53.5t-118.5 40.5t-47 99q0 141 262 262q100 43 159 43q74 0 107 -51v-2q0 -10 -70 -45q-78 -31 -90 -35l-6 2 q-37 51 -111 51q-86 -72 -86 -147q0 -31 11 -52q10 -23 32 -41q25 -20 48 -28q37 -12 61 -13l6 19q2 6 4 10l6 12q18 25 74 47q68 27 94 29q-6 -27 -6 -82q0 -49 160 -49q70 70 70 184q0 166 -130 293q-133 131 -331 131q-145 0 -226 -59q-168 -123 -168 -338t187 -356 q178 -135 438 -136q94 0 150 11q-10 -12 -35 -27q-109 -63 -266 -63q-268 0 -449 131q-190 138 -190 356z" />
<glyph unicode="A" horiz-adv-x="962" d="M102 0q10 35 39 301q14 150 27 332q8 131 8 266q0 113 -6 199q-10 117 -12 133q0 12 -1 25.5t-2 19.5t-1 8q0 20 71 51q61 25 97 31q8 -66 12 -102q0 -8 1 -20.5t2 -18.5t1 -11q8 2 119 23q45 12 67 23q8 4 48 19t67 28q86 35 104 41q43 15 68 18q10 -20 10 -31l-1 -2 q-1 -10 -1 -26q0 -8 -4 -144q-2 -68 -2 -188q0 -31 -1 -88.5t-1 -83.5q0 -414 41 -656q3 -25 6 -43q2 -12 2 -24q0 -18 -72 -49q-68 -31 -94 -31q-6 0 -6 4q0 6 2 10t2 9l-2 12q-2 12 -7 50t-11 79q-8 49 -15 158q-8 117 -10 217q-102 -43 -336 -129l-18 -166 q-12 -111 -21 -168q-29 -29 -77 -49q-56 -23 -93 -27zM319 475h8.5t8.5 -2q2 0 7 -1t7 -1q63 0 297 98q0 16 -1 45t-1 41v68v100q0 18 1 65.5t1 76t1 75.5t1 66v100q0 43 6 72q-68 -29 -129 -49l-184 -68q2 -23 2 -80q0 -14 1 -47t1 -53q0 -252 -27 -506z" />
<glyph unicode="B" horiz-adv-x="1015" d="M102 0v2q0 4 4 16l5 13l14 219q10 127 12 252q4 172 4 260q0 193 -8 276l-9 110.5t-7 82.5l-6 51q0 20 71.5 51t93.5 33q6 -59 9 -86l6 -35.5t4 -32.5q37 16 57 23l86 29q68 20 99 28l174 47l45 13q4 0 26.5 6t34.5 8q-9 -18 -18 -43l-23 -59q-37 -104 -37 -217 q0 -104 27 -240q20 -10 70 -10q8 0 21 -1t17 -1q18 0 25 -2q16 -76 16 -181q0 -33 -8 -112q-16 -158 -26 -244q0 -57 -23 -170q-14 -27 -76 -55q-61 -31 -90 -31l-100 25q-125 27 -219 26q-106 0 -205 -33q-6 -4 -27 -8q-10 -2 -39 -10zM276 90q129 41 275 41q76 0 151 -12 q45 342 46 434v25q-2 14 -5 32q-4 29 -4 35v21q0 23 -2 26q-4 12 -18 19q-15 6 -37 6q-14 0 -76 -12q-113 -23 -162 -46l-38.5 -20l-32.5 -18l-70 -37q-2 -18 -3 -57.5t-1 -59.5q-4 -70 -8 -164q0 -18 -4 -88q-3 -23 -11 -125zM295 1167q8 -139 10 -180q4 -111 4 -149 q0 -2 -1 -27t-1 -45q0 -23 -4 -145q152 94 291 137q-8 39 -16 112q-6 51 -7 97q0 190 74 313q-74 -31 -147 -53q-90 -29 -203 -60z" />
<glyph unicode="C" d="M102 1284q0 18 70 49q72 31 92 33q27 -12 35 -111q181 68 492 111l6 -4q0 -4 -17 -14q-53 -41 -65 -82q-4 -14 -8 -97q0 -43 -23 -77q-18 -25 -78 -50q-33 -10 -41 -14t-26.5 -9t-24.5 -7q0 180 111 272q-72 -12 -136 -27q-80 -16 -186 -40q6 -82 16 -279q6 -119 7 -201 q0 -144 -7 -295q-8 -209 -16 -315q180 35 289 35q35 0 53 -2q-4 31 -27 114q-18 74 -18 119q0 18 72 49q45 18 94 33q3 -3 6 -24l3 -23q3 -23 5 -37q0 -10 6 -35q2 -12 6.5 -27.5t8.5 -37.5q10 -53 10 -103q0 -82 -18 -108q-18 -25 -76 -51q-63 -29 -92 -29q-65 80 -203 80 q-52 0 -141 -19q-86 -59 -150 -61q-4 2 -4 6l4 14q0 9 12 203q8 154 13 275q4 160 4 204q0 206 -6 314q-6 68 -9 84q-6 55 -18 119q-9 20 -25 65z" />
<glyph unicode="D" horiz-adv-x="968" d="M102 1282q0 16 72 51q70 31 96 33q33 -45 39 -203l185 72l260 100q77 31 88 31h2q23 -51 22 -371q0 -88 -2 -145q-6 -147 -8 -203q-2 -45 -4 -116.5t-2 -86.5q-2 -57 -2 -145v-45q0 -8 1 -29.5t1 -34.5q2 -47 2 -106q0 -18 -64 -49q-66 -31 -96 -35l-33 33l-47 47 q-57 49 -264 49h-45v-16q0 -25 -4 -33q-8 -20 -72 -49l-53 -21q-16 -6 -41 -10q-6 3 -6 6l6 17q3 12 12 202q14 264 15 574q0 332 -33 418zM309 197q43 10 88 12q61 4 97 4q111 0 184 -20q0 90 2 149l8 211l8 211q2 59 2 151q0 100 -6 189q-8 115 -14 170q-4 0 -41 -14.5 l-133 -51.5l-195 -73q10 -143 13 -238q4 -131 4 -154q0 -8 -1 -28.5t-2 -59.5t-1 -77q-5 -117 -13 -381z" />
<glyph unicode="E" d="M102 1282q0 18 70 49q68 33 92 35q25 -16 35 -113q211 76 399 107q46 6 62 6h12q2 0 10.5 -1t14.5 -1q0 -4 -17 -16q-59 -49 -67 -88q-2 -16 -2 -48q0 -18 -4 -51q0 -35 -23 -69q-18 -27 -76 -50q-8 -4 -21.5 -8l-32.5 -10t-36 -12q0 178 111 276q-12 -2 -58.5 -12 l-76.5 -16l-189 -46q20 -274 21 -483h24q14 -2 32.5 -4t33.5 -4h24q33 0 56 2q12 2 38.5 3t40.5 1q102 10 138 10q-14 -20 -51 -41q-57 -33 -109 -41q-45 -8 -94 -10q-8 0 -55.5 -3l-77.5 -5q-4 -168 -9 -252q-8 -166 -14 -260q180 35 279 35q4 0 14 -1t16 -1q20 0 33 -2 q-3 22 -24 116q-9 37 -13 68q-4 41 -4 51q0 18 70 49q37 16 59 23q33 8 35 8q0 -2 1 -5t2 -8t1 -11q4 -20 10 -58q29 -180 29 -205q0 -82 -18 -108q-14 -20 -76 -47q-61 -29 -88 -31q-63 80 -205 80q-8 0 -28.5 -3t-30.5 -3q-14 -2 -84 -15q-84 -55 -150 -59q2 39 4 94 l4 60.5t4 68.5q8 150 13 256q4 139 4 170q0 10 -4 150q-2 102 -13 266q0 14 -4 63q-4 39 -12 91z" />
<glyph unicode="F" horiz-adv-x="845" d="M102 1284q0 20 72 51q66 29 94 31q27 -37 31 -111q229 86 463 111q16 -4 33 -2q-2 -6 -17 -16q-45 -41 -61 -76q-12 -31 -12 -90q0 -61 -21 -88q-20 -31 -76 -52q-70 -27 -94 -30q6 182 113 274l-135 -26q-35 -8 -56.5 -12.5t-55.5 -12.5l-77 -18q6 -86 16 -291 q6 -127 7 -213q175 37 430 37l2 -5q-12 -18 -73.5 -48.5t-86.5 -30.5q-33 0 -123 -4q-70 -4 -151 -13q-12 -555 -27 -573q-20 -27 -75.5 -51.5t-94.5 -24.5q23 98 23 221q0 20 4 217q2 49 2 127q0 20 1 50t1 40q0 45 -17 410q0 12 -4 65q-2 37 -12 91q-19 65 -22 64z" />
<glyph unicode="G" horiz-adv-x="960" d="M102 1284q10 23 70 49q68 31 96 33q25 -33 31 -113q313 113 479 113q8 0 17 -6l-7 -6l-10 -11q-70 -61 -69 -149v-25q0 -88 -101 -131q-51 -20 -94 -30q2 180 113 274q-72 -12 -135 -27l-187 -43q20 -248 21 -473q0 -319 -21 -604q182 35 275 35h41q2 0 38 -6v37 q0 29 -10 114l-6 70q-2 18 -2 47l-78 25q-20 6 -50 16t-69 21q16 20 72 49q57 31 84 30q25 0 258 -75q-12 -18 -43 -35q4 -37 8 -107q2 -33 2 -86q0 -143 -32 -184q-18 -25 -70 -51q-20 -12 -51 -25q-12 -6 -37 -10q-10 4 -35 33q-53 53 -176 53q-47 0 -143 -18 q-82 -57 -150 -68q0 2 -1 5l-1 3v6q0 -6 3 2q1 3 1 7t2 22t4 33q0 8 1 28.5t1 34.5q0 18 4 88q12 303 13 420q0 12 -1 43t-1 49q-2 43 -4 117q-2 33 -4.5 81t-2.5 58l-4 70q0 55 -12 156q-2 4 -4 9l-6 15q-11 27 -17 37z" />
<glyph unicode="H" horiz-adv-x="964" d="M102 0q14 53 41 315q16 150 29 338q10 164 10 260q0 104 -2 146q-4 72 -8 104q-14 106 -14 121q0 20 71 51q59 25 95 31q25 -203 24 -387q0 -242 -26 -496q20 -4 28 -4q61 0 299 101q0 692 8 702q63 70 168 82l6 -2q-10 -41 -10 -170q0 -23 -4 -191v-110q0 -16 -1 -44 t-1 -36t6 -254q2 -121 13 -235q0 -6 2 -31t4 -41q2 -20 5 -46t7 -54q12 -61 12 -70q0 -18 -69 -47q-74 -31 -99 -33l-22 162q-10 82 -17 164q-4 68 -8 221q-121 -47 -334 -123l-18 -172l-21 -172q-20 -31 -77 -55q-56 -25 -97 -25z" />
<glyph unicode="I" horiz-adv-x="407" d="M102 8h2q0 2 1 9.5t4 15.5q0 2 1 10t2 23.5t1 31.5q0 18 4 74.5t6 93.5q9 154 12 277q4 164 4 215q0 162 -14 346q0 10 -4 47q0 4 -2 28.5t-4 39.5l-6 47q-2 12 -3 20q0 23 70 49q61 25 98 31q31 -261 31 -528q0 -82 -2 -148q-6 -215 -8 -252q-12 -342 -21 -352 q-25 -29 -73 -53q-59 -31 -95 -33q-4 4 -4 8z" />
<glyph unicode="J" horiz-adv-x="876" d="M51 395q0 18 74 49q12 6 32.5 13.5t24.5 9.5q18 8 35 8q10 -43 14 -264q109 47 191 47q90 0 170 -39q0 82 2 139q0 14 2 86t4 117q0 25 3 95.5t3 103.5q0 31 1 79t1 64q0 61 -4 148q-4 106 -6 114q-12 117 -12 119q0 16 69 47q74 33 97 35q23 -59 22 -264q0 -168 -8 -406 q-2 -131 -6 -235q-2 -68 -2 -166v-45q0 -8 1 -29.5t1 -34.5v-61q0 -10 1 -24.5t1 -20.5q0 -14 -72 -45q-70 -33 -96 -35q-139 170 -330 170q-18 0 -31 -2v-33q0 -37 -6 -53q-10 -25 -71 -51q-52 -22 -93 -31v23q0 4 1.5 16t1.5 20v60q0 6 -1.5 25.5t-1.5 31.5t-3 41t-3 39 q-4 61 -4 82q0 12 -1 31.5t-1 25.5z" />
<glyph unicode="K" horiz-adv-x="931" d="M102 1284q0 23 70 49l27.5 11.5t23.5 9.5q22 9 43 12q34 -28 43 -246q2 -33 15 -295l145 224l66 96q174 219 305 221q-4 -6 -21 -18q-90 -74 -295 -404l-37 -57q-8 -14 -16 -30.5t-18 -31.5q-45 -70 -88 -104q180 -115 317 -326q55 -92 88 -155q49 -95 111 -234 q-33 -51 -164 -80q-14 14 -76 160q-123 291 -317 463q-2 -76 -11 -232q-8 -162 -14 -237q-55 -65 -166 -80l12 225q8 154 9 328q0 94 -6.5 274.5t-6.5 274.5q0 84 -14 121z" />
<glyph unicode="L" horiz-adv-x="919" d="M102 1282q0 16 66 47q78 35 94 37q35 -25 47 -238q8 -154 13 -268q0 -27 1 -55.5t2 -45t1 -22.5q0 -190 -15 -434q231 0 389 -82v141q0 18 68 50q66 33 92 32q2 0 6 -2q0 -23 1 -58.5t1 -49.5v-82q0 -150 -12 -170.5t-72 -48.5q-68 -31 -92 -33q-4 4 -8 10l-10 15 q-16 20 -29 32q-104 113 -338 150v-60q0 -45 -10 -69q-8 -20 -69.5 -47t-96.5 -31l19 412q8 217 8 237q0 41 -17 412q0 12 -4 65q-2 35 -12 93z" />
<glyph unicode="M" horiz-adv-x="1269" d="M102 0q2 12 6.5 51t6.5 64q10 78 18 192q33 352 33 594q0 96 -2 139q-4 78 -8 119l-13 127q0 20 72 49q57 25 94 31q8 -43 15 -147q8 2 17 4t19 4l50 10q43 10 157 70q109 53 158 59q10 -2 10 -12v-29q0 -10 -4 -39q-2 -29 -2 -65q2 0 15.5 3t21.5 5t49 10q39 10 64 23 l94 45q104 53 157 59q6 -6 7 -23q0 -90 -7 -266v-83t-2 -70q0 -23 -1 -60t-1 -51q0 -98 4 -266q2 -125 13 -236q6 -94 16 -159q8 -49 8 -72q0 -18 -67 -47q-74 -31 -99 -33l-18 164q-8 80 -16 248q-6 141 -6 321v107q0 20 1 70.5t1 80.5q4 229 4 258q0 20 2 29 q-92 -43 -99 -45l-141 -59q-4 -197 -4 -236v-129q0 -291 14 -498q12 -131 17 -159q10 -61 10 -72q0 -18 -72 -47q-78 -31 -98 -33l-16 162q-12 123 -18.5 264t-6.5 303q0 96 2 176q4 156 4 178v31q0 6 1 18.5t1 20.5t1 21.5t1 19.5v31v26q0 4 -1 13.5t-1 13.5 q-104 -51 -237 -107q2 -59 4 -106q0 -16 1 -44t1 -40q0 -166 -49 -786q-2 -8 -3 -26.5t-1 -27.5q-4 -47 -9 -61q-12 -23 -71 -49q-8 -4 -54 -21q-14 -6 -43 -10z" />
<glyph unicode="N" horiz-adv-x="958" d="M102 0q0 25 33 289q39 317 39 649q0 20 -1 53t-1 45q0 33 -4 74q-2 31 -7 77t-7 60l-4 39q0 18 71 49q57 20 96 31q8 -45 11 -70q4 -49 4 -82q8 2 25.5 5.5t23.5 5.5q8 2 32.5 5t39.5 7q39 8 184 70q123 49 172 53l8 -4l-8 -547q0 -416 39 -657q8 -47 8 -70 q0 -16 -70 -47q-63 -29 -90 -35q-10 14 -16 70q-23 254 -29 381q-10 180 -10 278q0 14 1 52t1 63q2 61 4 160q2 92 4 159v115l-129 -49l-184 -66q4 -94 4 -182q0 -77 -6 -178q-2 -39 -21 -230l-24 -260q-8 -102 -12 -147q0 -29 -11 -86q-9 -22 -73 -49l-27.5 -11.5 t-24.5 -9.5q-12 -6 -41 -10z" />
<glyph unicode="O" horiz-adv-x="933" d="M102 1176q0 16 72 53q59 30 86 29q5 0 8 -1q80 14 211 43q100 20 291 66l6 -14q-10 -442 -10 -547q0 -227 10 -373q10 -158 35 -328l23 -18q-18 -25 -84 -55q-65 -31 -99 -31q-8 0 -8 25q-102 66 -305 65q-10 0 -30.5 -1t-31.5 -1q-41 0 -63 -2q-55 -25 -80 -27 q0 35 2 66q6 102 8 119q8 117 13 237q4 160 4 238q0 311 -29 391q0 2 -4 10l-12 23q-13 19 -13 33zM291 1212q2 -8 10 -59q4 -31 8 -100q8 -166 13 -232q0 -23 1 -47t2 -37.5t1 -19.5q0 -106 -7 -244q-2 -59 -20 -309q119 12 195 12q39 0 61 -2q49 -4 72 -8q-16 145 -23 270 q-6 138 -6 289q0 512 18 557q-14 -4 -54 -13l-62 -14z" />
<glyph unicode="P" d="M102 1282q0 18 70 49q74 35 94.5 35t38.5 -129q4 4 23 10q14 4 260 62l134 30.5l88 20.5l26 6q3 0 12 -18q16 -53 16 -170q0 -61 -2 -103q-3 -61 -6 -141t-6 -141q-2 -41 -2 -103v-26q0 -4 1 -17.5t1 -22t1 -21.5t1 -19v-29q0 -18 -70 -49q-45 -18 -55 -21 q-6 -2 -19.5 -5t-19.5 -5q-113 82 -358 82h-6q0 -6 -1 -16.5l-2.5 -27.5t-1.5 -30q-4 -53 -6 -131q-4 -86 -4 -116q0 -18 -1 -48t-1 -43q0 -43 -10 -67q-8 -20 -69.5 -47t-94.5 -31q0 39 2 74q8 129 8 137q12 213 15 262q4 152 4 191q0 43 -1 111.5t-1 94.5q0 66 -4 144 q-4 70 -25 194q-23 77 -28 77q-1 0 -1 -3zM307 1194q10 -195 15 -358q4 -188 4 -205q35 4 100 8q31 2 88 2q113 0 166 -10q0 49 2 84q0 8 2 53t4 74q10 154 10 213q0 113 -22 225l-154 -35q-47 -10 -100.5 -23.5t-114.5 -27.5z" />
<glyph unicode="Q" horiz-adv-x="933" d="M102 1176v2q0 14 74 49q66 29 89 29q2 0 3 -1q80 14 211 43l88 19.5t85.5 21t117.5 27.5q-12 -154 -12 -303q0 -6 1 -37t1 -55.5t3 -82t3 -83.5q8 -307 10 -352q8 -127 15 -187q12 -109 20 -164l23 -16q-18 -25 -82 -55.5t-101 -30.5q-8 0 -8 23q-53 35 -121 51 q-47 -156 -114 -236q-25 -25 -72 -47q-55 -27 -88 -29l-4 2v3q29 51 47 90q6 12 17 36.5l21.5 47t18.5 45.5q4 16 12 43q6 29 19 59h-92q-29 0 -74 -4q-49 -22 -80 -25q0 35 2 66q6 92 8 117q8 117 13 213q4 127 4 172q0 132 -19 356q-2 27 -12 78q-11 56 -27 115zM291 1210 q2 -8 10 -59q4 -31 8 -100q8 -162 13 -230q0 -23 1 -47t2 -37.5t1 -19.5q0 -106 -7 -244q-2 -66 -20 -311q37 4 102 8q33 2 93 2q78 0 133 -6q-16 147 -23 274q-6 144 -6 301q0 502 16 541q-124 -33 -323 -72z" />
<glyph unicode="R" d="M102 1282q0 18 70 49q74 35 94 35q18 0 37 -129q80 29 252 59q156 29 256 64q22 6 25 6t12 -18q16 -55 16 -183q0 -59 -2 -98q-2 -55 -6 -139q-2 -76 -6 -137q-2 -39 -2 -101v-26q0 -6 1 -19.5t1 -22t1 -20.5t1 -18v-29q0 -14 -68 -49q-72 -33 -90 -33h-8 q-104 74 -266 82q29 -115 149 -287q182 -260 258 -311q10 -6 11 -8q0 -14 -68 -47q-61 -29 -92 -37l-8 4q-120 120 -209 233q-84 106 -150 226q-2 -115 -12 -248q-16 -29 -76 -51q-41 -16 -90 -29q0 37 2 72q8 127 8 137q8 135 13 244q4 143 4 194q0 89 -19 418q0 14 -4 63 q0 10 -10 91q-6 35 -16 51q-1 2 -4 6zM307 1194q10 -190 15 -363q4 -188 4 -202q102 10 188 10q102 0 164 -12q0 51 2 86q6 88 8 122.5t8 122.5q2 35 2 91q0 117 -22 229l-154 -35z" />
<glyph unicode="S" horiz-adv-x="892" d="M102 1282q0 15 68 49q70 35 88 35q29 0 45 -109q338 109 451 109q8 0 20 -4l-6 -6l-4 -3q-4 -3 -6 -5q-66 -53 -72 -129q-2 -96 -24 -127q-23 -29 -74 -52q-4 -2 -17.5 -6t-21.5 -8q-4 -2 -53 -16q3 184 110 276l-127 -26l-174 -39q8 -76 12 -134q4 -74 5 -90 q0 -127 -25 -366q43 8 125 14q47 4 156 4q126 0 202 -31q0 -6 1 -24.5t1 -28.5v-34.5t2 -38.5q2 -49 4 -76q0 -10 1.5 -27.5t1.5 -23.5q0 -230 -43 -289q-16 -23 -74 -49q-59 -27 -92 -27q-53 80 -189 80q-8 0 -22.5 -1t-22.5 -1q-16 0 -49 -4q-6 -23 -68 -45 q-70 -27 -96 -29q0 2 1 10t1 15q2 8 2 18v20q2 14 4 37q0 6 1 14.5t1 12.5q0 20 -12 59q-10 33 -10 58q0 16 72 47l31.5 11t23.5 9q14 6 39 11q23 -49 22 -113q0 -29 -6 -78q164 33 246 33q6 0 16.5 -1t14.5 -1q23 0 32 -2q4 45 4 71q0 12 1.5 37t1.5 37q0 16 -1.5 50 t-1.5 53q0 33 -4 118q-53 41 -182 41q-33 0 -98 -4q-70 -4 -105 -8q-51 -20 -100 -33v2l4 41q0 6 2 34t4 46q8 88 11 135q4 86 4 127q0 172 -17 246q0 16 -20 66q-15 40 -15 63z" />
<glyph unicode="T" horiz-adv-x="788" d="M-49 1206q10 27 82 54q66 23 106 30v-2q6 0 28.5 1t37.5 1q20 0 94 4q14 12 76 41q72 31 82 31q12 0 12 -59q49 6 113 12q25 2 80 8t79 8l99 13l2 -5q-16 -18 -51 -36q-72 -41 -152 -50q-29 -4 -82 -8q-12 0 -41 -3t-43 -5q0 -4 5 -55t7 -78q2 -43 2 -129 q0 -190 -22 -408l-21 -202l-20 -203q0 -31 -12 -86q-12 -20 -72 -49q-58 -28 -92 -31q0 10 33 285q39 326 38 612q0 170 -16 328q-225 -23 -321 -23q-19 0 -31 4z" />
<glyph unicode="U" horiz-adv-x="962" d="M102 1284.5q0 20.5 72 50.5q66 29 94 31q25 -162 37 -348q12 -178 12 -377q0 -119 -2 -201q-3 -123 -6 -295q114 22 191 31q58 7 98 7q13 0 25 -1q-8 106 -9 205q0 238 48 670q2 78 26 229q12 20 76 51q59 29 90 29q6 0 6 -4q0 4 -2 0q-4 -6 -6 -23q0 -33 -8 -82 q0 -6 -10 -73q-2 -12 -5.5 -47t-7.5 -58q-39 -336 -39 -633q0 -96 2 -135q2 -55 7 -94q0 -8 2 -24q0 -8 3 -18.5t5 -27.5q8 -35 8 -67q0 -18 -74 -49q-12 -4 -31.5 -11.5t-23.5 -9.5q-16 -6 -41 -10q-6 49 -84 78q-55 20 -125 20q-49 0 -123 -12q-27 -27 -78 -53 q-61 -33 -88 -33q4 47 9 156q2 57 2 190q0 281 -11 520q-9 215 -30 351q-9 47 -9 67.5z" />
<glyph unicode="V" horiz-adv-x="897" d="M51 1284q0 18 72 49q72 33 94 33l6 -8q6 -16 16.5 -41t20.5 -53q12 -33 37 -111q74 -227 158 -735l157 594q10 33 19 75l24 109q4 39 21 90q12 22 74 49q72 31 90 31q8 0 8 -6q0 -20 -12 -57q-12 -35 -14.5 -41.5t-5.5 -13.5l-1 -3q-8 -29 -15 -61.5t-18 -73.5l-49 -195 l-59 -217l-80 -305q-8 -57 -21 -119q-10 -45 -41 -161q-45 -96 -182 -113q0 4 -3 21.5t-10 52.5t-13 73l-68 377q-18 111 -57 289q-10 47 -60 234q-6 23 -17 56.5t-11 35.5q-8 25 -27 67q-33 72 -33 78z" />
<glyph unicode="W" horiz-adv-x="1275" d="M102 1282q0 16 72 51q70 31 94 33q14 -25 31 -348q2 -35 6 -112t6 -111q2 -63 2 -158q0 -131 -8 -490q144 39 228 40q6 0 12 -1q6 197 6 375q0 195 -10 375q-10 172 -27 276q-4 37 -4 70q0 18 70 49q12 6 32.5 13.5t22.5 9.5q22 9 37 12q8 -14 10 -74l25 -403 q8 -145 8 -250q0 -88 -2 -172q-2 -125 -6 -330q119 41 237 41q-4 74 -4 107q0 18 -1 53t-1 51q0 227 29 549l26 260q0 37 8 86q10 25 72 51q66 31 94 31q6 0 7 -4q0 -2 -5 -14l-4 -13l-6 -57q-29 -303 -39 -455q-14 -233 -14 -354q0 -100 2 -141q3 -61 6 -111l12 -133 q0 -15 -67 -49q-70 -35 -90 -35q-43 51 -72 70q-39 27 -104 26h-45q-8 0 -23.5 -3t-17.5 -3q-4 -4 -29 -24q-12 -10 -49 -31q-57 -31 -88 -35q-2 37 -64 70q-59 33 -104 32q-4 0 -15.5 -1t-17.5 -1q-10 0 -35 -4q0 -23 -69 -57q-70 -37 -99 -39v53v105q0 33 4 147 q2 57 2 148q0 23 1 56.5t1 45.5q0 229 -8 375q-10 174 -26 282q-9 52 -9 70z" />
<glyph unicode="X" horiz-adv-x="872" d="M51 1282q0 18 70 49l27.5 11.5t23.5 9.5q29 12 41 14l4 -4q154 -205 264 -485q90 184 123 274q2 12 21 61q14 37 32 76q29 29 74 49q57 27 92 29v-6q-68 -203 -291 -631l168 -524l15.5 -46.5l12.5 -35.5t8 -24.5t5 -14.5l2 -4q0 -18 -69 -49q-71 -31 -99 -31q-6 0 -6 16 l-34 107l-50 158l-67 221q-25 -46 -56 -117l-73 -164q-12 -49 -56 -143q-20 -25 -75 -51q-63 -27 -90 -27q2 80 297 653q-121 348 -248 533q-66 100 -66 96z" />
<glyph unicode="Y" horiz-adv-x="937" d="M51 1282q0 18 72 49q12 6 32.5 13.5t22.5 9.5q22 9 37 12q25 -31 39 -229q2 -39 8 -144q4 -82 4 -106q0 -78 -2 -131q-2 -74 -6 -193q127 29 264 29q4 0 14.5 -1t18.5 -1q29 0 45 -2q2 20 7 79.5t7 92.5q12 166 27 301q2 86 29 221q18 27 71 51q68 31 90 33l5 -2 q0 -63 -15 -143q-20 -123 -20 -142q-16 -139 -27 -331q-8 -150 -8 -349q0 -219 18 -303l4 -16q0 -12 -71 -47q-76 -33 -92 -33q-6 0 -4 16q-55 80 -203 80q-14 0 -51 -4q-4 0 -28 -2t-36 -4q-14 -25 -76 -53q-59 -29 -92 -33q0 25 6 78t6 78q0 39 -6 57q-14 37 -14 49 q0 8 70 41q70 31 94 33q23 -23 22 -113v-43q0 -12 -4 -37q88 14 180 27q55 7 92 7q12 0 23 -1q-2 31 -4 85t-2 61q-2 45 -2 129q-23 6 -78 26q-68 29 -127 29q-25 0 -82 -4q-4 0 -40 -2t-54 -4l-59 -25q-20 -8 -66 -20q0 59 6 175.5t6 178.5q0 104 -6 184q-8 94 -14 141 q0 6 -6 25l-13 49q-12 45 -12 78z" />
<glyph unicode="Z" horiz-adv-x="907" d="M72 0q0 4 2 11q4 8 4 12q4 16 10 32q59 160 223 486q-35 -8 -96 -19q-58 -9 -135 -18q59 66 266 98q211 408 305 660q-109 -16 -344 -68v-14q0 -2 1 -10.5t1 -12.5v-37q0 -51 -8 -69q-10 -23 -72 -50q-12 -6 -33.5 -13t-23.5 -7q-27 -10 -39 -10v30q0 10 4 43q2 25 4 43 v33v33q-2 20 -4 47q-4 37 -4 47v35q0 20 72 51q35 18 55 23q6 2 14.5 4t14.5 4t10 2q2 -8 3 -28.5t1 -30.5q2 -12 3 -40t1 -42q74 27 129 41q57 16 139 32l11 2q47 6 55 9q12 2 38 8t36 8q37 25 106 41l2 -4q0 -41 -86 -225q-90 -195 -254 -512l111 24q63 14 113 15h10l4 -1 l4 -1q-6 -6 -37 -25q-66 -37 -113 -49l-40 -8q-8 -2 -20.5 -4.5t-31 -5.5l-30.5 -5q-70 -137 -111 -225q-35 -78 -84 -203q172 92 295 92q53 0 115 -22v88q0 14 1 36.5t1 33.5q0 18 75 51q10 4 39 12q14 4 52 16v-235q0 -100 -15 -129q-12 -23 -71 -49q-12 -6 -33 -15 l-21 -8q-18 -8 -39 -8q-86 145 -284 145q-18 0 -37 -6q-16 -6 -34.5 -16t-33.5 -23l-30 -22q-14 -27 -74 -51q-59 -27 -92 -27z" />
<glyph unicode="[" horiz-adv-x="876" d="M154 1282q0 18 69 49q74 35 94 35q16 0 35 -121q303 119 367 121l6 -4q-33 -41 -170 -88l-98 -29l-101 -28q14 -199 17 -254q4 -80 4 -228q0 -109 -6 -260q-6 -160 -19 -350q147 33 199 33q86 0 135 -54q16 -18 16 -24q0 -22 -67 -49q-4 -2 -60 -23q-23 -8 -40 -8 q-43 72 -144 72h-18q-4 0 -25 -4q-18 -18 -78 -43q-10 -4 -51 -17q-29 -8 -37 -8l4 41q0 23 3.5 63.5t7.5 102.5q12 195 12 438q0 92 -16 410q0 49 -13 147q-23 83 -26 80z" />
<glyph unicode="\" horiz-adv-x="858" d="M51 1284q0 18 70 49q74 31 96 33q61 -164 137 -319l129 -261l179 -366l53 -121l76 -172q18 -37 18 -47q0 -18 -72 -49q-70 -31 -96 -31q-12 0 -14 20q0 2 -1 7.5t-1 7.5v12q0 3 -19 49l-43 99q-41 92 -57 124l-129 261l-180 364l-54 123l-75 172q-17 35 -17 45z" />
<glyph unicode="]" horiz-adv-x="856" d="M154 59q33 43 145 76q106 31 174 33q-9 157 -12 276q-4 160 -4 207q0 510 49 627q-70 -14 -234 -70q-76 -33 -84 -32q-4 0 -8 2q6 35 236 112q223 76 278 76q2 0 5 -1l3 -1q-18 -18 -36 -29q-41 -113 -41 -506q0 -113 4 -288q2 -102 10 -244q2 -25 3 -47.5t2 -41t3 -35.5 t2 -29.5t1 -23.5t2 -18.5t1 -12.5v-6q0 -17 -69 -48q-70 -33 -95 -35q-49 86 -149 86q-29 0 -94 -16q-57 -14 -90 -15z" />
<glyph unicode="^" horiz-adv-x="991" d="M154 676l10 20q16 33 20 43q8 14 16.5 34l16.5 40l59 141l86 197q12 35 27 59l43 76q12 18 72 47q72 31 88 33q14 -25 72 -170l53 -137l74 -195q49 -129 49 -119q0 -16 -70 -49q-76 -33 -96 -32l-2 2q-12 10 -86 223l-90 258l-117 -273q-27 -66 -60 -124q-14 -20 -75 -48 q-63 -29 -88 -28q-2 0 -2 2z" />
<glyph unicode="_" horiz-adv-x="921" d="M0 0v86h922v-86h-922z" />
<glyph unicode="`" horiz-adv-x="653" d="M154 1765q0 25 63 52q63 29 94 28q25 0 99 -145l63 -123q18 -37 27 -45q0 -14 -72 -49q-76 -33 -90 -33q-2 0 -43 72q-18 33 -139 241q-2 0 -2 2z" />
<glyph unicode="a" horiz-adv-x="962" d="M102 0q10 35 39 301q14 150 27 332q8 131 8 266q0 113 -6 199q-10 117 -12 133q0 12 -1 25.5t-2 19.5t-1 8q0 20 71 51q61 25 97 31q8 -66 12 -102q0 -8 1 -20.5t2 -18.5t1 -11q8 2 119 23q45 12 67 23q8 4 48 19t67 28q86 35 104 41q43 15 68 18q10 -20 10 -31l-1 -2 q-1 -10 -1 -26q0 -8 -4 -144q-2 -68 -2 -188q0 -31 -1 -88.5t-1 -83.5q0 -414 41 -656q3 -25 6 -43q2 -12 2 -24q0 -18 -72 -49q-68 -31 -94 -31q-6 0 -6 4q0 6 2 10t2 9l-2 12q-2 12 -7 50t-11 79q-8 49 -15 158q-8 117 -10 217q-102 -43 -336 -129l-18 -166 q-12 -111 -21 -168q-29 -29 -77 -49q-56 -23 -93 -27zM319 475h8.5t8.5 -2q2 0 7 -1t7 -1q63 0 297 98q0 16 -1 45t-1 41v68v100q0 18 1 65.5t1 76t1 75.5t1 66v100q0 43 6 72q-68 -29 -129 -49l-184 -68q2 -23 2 -80q0 -14 1 -47t1 -53q0 -252 -27 -506z" />
<glyph unicode="b" horiz-adv-x="1015" d="M102 0v2q0 4 4 16l5 13l14 219q10 127 12 252q4 172 4 260q0 193 -8 276l-9 110.5t-7 82.5l-6 51q0 20 71.5 51t93.5 33q6 -59 9 -86l6 -35.5t4 -32.5q37 16 57 23l86 29q68 20 99 28l174 47l45 13q4 0 26.5 6t34.5 8q-9 -18 -18 -43l-23 -59q-37 -104 -37 -217 q0 -104 27 -240q20 -10 70 -10q8 0 21 -1t17 -1q18 0 25 -2q16 -76 16 -181q0 -33 -8 -112q-16 -158 -26 -244q0 -57 -23 -170q-14 -27 -76 -55q-61 -31 -90 -31l-100 25q-125 27 -219 26q-106 0 -205 -33q-6 -4 -27 -8q-10 -2 -39 -10zM276 90q129 41 275 41q76 0 151 -12 q45 342 46 434v25q-2 14 -5 32q-4 29 -4 35v21q0 23 -2 26q-4 12 -18 19q-15 6 -37 6q-14 0 -76 -12q-113 -23 -162 -46l-38.5 -20l-32.5 -18l-70 -37q-2 -18 -3 -57.5t-1 -59.5q-4 -70 -8 -164q0 -18 -4 -88q-3 -23 -11 -125zM295 1167q8 -139 10 -180q4 -111 4 -149 q0 -2 -1 -27t-1 -45q0 -23 -4 -145q152 94 291 137q-8 39 -16 112q-6 51 -7 97q0 190 74 313q-74 -31 -147 -53q-90 -29 -203 -60z" />
<glyph unicode="c" d="M102 1284q0 18 70 49q72 31 92 33q27 -12 35 -111q181 68 492 111l6 -4q0 -4 -17 -14q-53 -41 -65 -82q-4 -14 -8 -97q0 -43 -23 -77q-18 -25 -78 -50q-33 -10 -41 -14t-26.5 -9t-24.5 -7q0 180 111 272q-72 -12 -136 -27q-80 -16 -186 -40q6 -82 16 -279q6 -119 7 -201 q0 -144 -7 -295q-8 -209 -16 -315q180 35 289 35q35 0 53 -2q-4 31 -27 114q-18 74 -18 119q0 18 72 49q45 18 94 33q3 -3 6 -24l3 -23q3 -23 5 -37q0 -10 6 -35q2 -12 6.5 -27.5t8.5 -37.5q10 -53 10 -103q0 -82 -18 -108q-18 -25 -76 -51q-63 -29 -92 -29q-65 80 -203 80 q-52 0 -141 -19q-86 -59 -150 -61q-4 2 -4 6l4 14q0 9 12 203q8 154 13 275q4 160 4 204q0 206 -6 314q-6 68 -9 84q-6 55 -18 119q-9 20 -25 65z" />
<glyph unicode="d" horiz-adv-x="968" d="M102 1282q0 16 72 51q70 31 96 33q33 -45 39 -203l185 72l260 100q77 31 88 31h2q23 -51 22 -371q0 -88 -2 -145q-6 -147 -8 -203q-2 -45 -4 -116.5t-2 -86.5q-2 -57 -2 -145v-45q0 -8 1 -29.5t1 -34.5q2 -47 2 -106q0 -18 -64 -49q-66 -31 -96 -35l-33 33l-47 47 q-57 49 -264 49h-45v-16q0 -25 -4 -33q-8 -20 -72 -49l-53 -21q-16 -6 -41 -10q-6 3 -6 6l6 17q3 12 12 202q14 264 15 574q0 332 -33 418zM309 197q43 10 88 12q61 4 97 4q111 0 184 -20q0 90 2 149l8 211l8 211q2 59 2 151q0 100 -6 189q-8 115 -14 170q-4 0 -41 -14.5 l-133 -51.5l-195 -73q10 -143 13 -238q4 -131 4 -154q0 -8 -1 -28.5t-2 -59.5t-1 -77q-5 -117 -13 -381z" />
<glyph unicode="e" d="M102 1282q0 18 70 49q68 33 92 35q25 -16 35 -113q211 76 399 107q46 6 62 6h12q2 0 10.5 -1t14.5 -1q0 -4 -17 -16q-59 -49 -67 -88q-2 -16 -2 -48q0 -18 -4 -51q0 -35 -23 -69q-18 -27 -76 -50q-8 -4 -21.5 -8l-32.5 -10t-36 -12q0 178 111 276q-12 -2 -58.5 -12 l-76.5 -16l-189 -46q20 -274 21 -483h24q14 -2 32.5 -4t33.5 -4h24q33 0 56 2q12 2 38.5 3t40.5 1q102 10 138 10q-14 -20 -51 -41q-57 -33 -109 -41q-45 -8 -94 -10q-8 0 -55.5 -3l-77.5 -5q-4 -168 -9 -252q-8 -166 -14 -260q180 35 279 35q4 0 14 -1t16 -1q20 0 33 -2 q-3 22 -24 116q-9 37 -13 68q-4 41 -4 51q0 18 70 49q37 16 59 23q33 8 35 8q0 -2 1 -5t2 -8t1 -11q4 -20 10 -58q29 -180 29 -205q0 -82 -18 -108q-14 -20 -76 -47q-61 -29 -88 -31q-63 80 -205 80q-8 0 -28.5 -3t-30.5 -3q-14 -2 -84 -15q-84 -55 -150 -59q2 39 4 94 l4 60.5t4 68.5q8 150 13 256q4 139 4 170q0 10 -4 150q-2 102 -13 266q0 14 -4 63q-4 39 -12 91z" />
<glyph unicode="f" horiz-adv-x="845" d="M102 1284q0 20 72 51q66 29 94 31q27 -37 31 -111q229 86 463 111q16 -4 33 -2q-2 -6 -17 -16q-45 -41 -61 -76q-12 -31 -12 -90q0 -61 -21 -88q-20 -31 -76 -52q-70 -27 -94 -30q6 182 113 274l-135 -26q-35 -8 -56.5 -12.5t-55.5 -12.5l-77 -18q6 -86 16 -291 q6 -127 7 -213q175 37 430 37l2 -5q-12 -18 -73.5 -48.5t-86.5 -30.5q-33 0 -123 -4q-70 -4 -151 -13q-12 -555 -27 -573q-20 -27 -75.5 -51.5t-94.5 -24.5q23 98 23 221q0 20 4 217q2 49 2 127q0 20 1 50t1 40q0 45 -17 410q0 12 -4 65q-2 37 -12 91q-19 65 -22 64z" />
<glyph unicode="g" horiz-adv-x="960" d="M102 1284q10 23 70 49q68 31 96 33q25 -33 31 -113q313 113 479 113q8 0 17 -6l-7 -6l-10 -11q-70 -61 -69 -149v-25q0 -88 -101 -131q-51 -20 -94 -30q2 180 113 274q-72 -12 -135 -27l-187 -43q20 -248 21 -473q0 -319 -21 -604q182 35 275 35h41q2 0 38 -6v37 q0 29 -10 114l-6 70q-2 18 -2 47l-78 25q-20 6 -50 16t-69 21q16 20 72 49q57 31 84 30q25 0 258 -75q-12 -18 -43 -35q4 -37 8 -107q2 -33 2 -86q0 -143 -32 -184q-18 -25 -70 -51q-20 -12 -51 -25q-12 -6 -37 -10q-10 4 -35 33q-53 53 -176 53q-47 0 -143 -18 q-82 -57 -150 -68q0 2 -1 5l-1 3v6q0 -6 3 2q1 3 1 7t2 22t4 33q0 8 1 28.5t1 34.5q0 18 4 88q12 303 13 420q0 12 -1 43t-1 49q-2 43 -4 117q-2 33 -4.5 81t-2.5 58l-4 70q0 55 -12 156q-2 4 -4 9l-6 15q-11 27 -17 37z" />
<glyph unicode="h" horiz-adv-x="964" d="M102 0q14 53 41 315q16 150 29 338q10 164 10 260q0 104 -2 146q-4 72 -8 104q-14 106 -14 121q0 20 71 51q59 25 95 31q25 -203 24 -387q0 -242 -26 -496q20 -4 28 -4q61 0 299 101q0 692 8 702q63 70 168 82l6 -2q-10 -41 -10 -170q0 -23 -4 -191v-110q0 -16 -1 -44 t-1 -36t6 -254q2 -121 13 -235q0 -6 2 -31t4 -41q2 -20 5 -46t7 -54q12 -61 12 -70q0 -18 -69 -47q-74 -31 -99 -33l-22 162q-10 82 -17 164q-4 68 -8 221q-121 -47 -334 -123l-18 -172l-21 -172q-20 -31 -77 -55q-56 -25 -97 -25z" />
<glyph unicode="i" horiz-adv-x="407" d="M102 8h2q0 2 1 9.5t4 15.5q0 2 1 10t2 23.5t1 31.5q0 18 4 74.5t6 93.5q9 154 12 277q4 164 4 215q0 162 -14 346q0 10 -4 47q0 4 -2 28.5t-4 39.5l-6 47q-2 12 -3 20q0 23 70 49q61 25 98 31q31 -261 31 -528q0 -82 -2 -148q-6 -215 -8 -252q-12 -342 -21 -352 q-25 -29 -73 -53q-59 -31 -95 -33q-4 4 -4 8z" />
<glyph unicode="j" horiz-adv-x="876" d="M51 395q0 18 74 49q12 6 32.5 13.5t24.5 9.5q18 8 35 8q10 -43 14 -264q109 47 191 47q90 0 170 -39q0 82 2 139q0 14 2 86t4 117q0 25 3 95.5t3 103.5q0 31 1 79t1 64q0 61 -4 148q-4 106 -6 114q-12 117 -12 119q0 16 69 47q74 33 97 35q23 -59 22 -264q0 -168 -8 -406 q-2 -131 -6 -235q-2 -68 -2 -166v-45q0 -8 1 -29.5t1 -34.5v-61q0 -10 1 -24.5t1 -20.5q0 -14 -72 -45q-70 -33 -96 -35q-139 170 -330 170q-18 0 -31 -2v-33q0 -37 -6 -53q-10 -25 -71 -51q-52 -22 -93 -31v23q0 4 1.5 16t1.5 20v60q0 6 -1.5 25.5t-1.5 31.5t-3 41t-3 39 q-4 61 -4 82q0 12 -1 31.5t-1 25.5z" />
<glyph unicode="k" horiz-adv-x="931" d="M102 1284q0 23 70 49l27.5 11.5t23.5 9.5q22 9 43 12q34 -28 43 -246q2 -33 15 -295l145 224l66 96q174 219 305 221q-4 -6 -21 -18q-90 -74 -295 -404l-37 -57q-8 -14 -16 -30.5t-18 -31.5q-45 -70 -88 -104q180 -115 317 -326q55 -92 88 -155q49 -95 111 -234 q-33 -51 -164 -80q-14 14 -76 160q-123 291 -317 463q-2 -76 -11 -232q-8 -162 -14 -237q-55 -65 -166 -80l12 225q8 154 9 328q0 94 -6.5 274.5t-6.5 274.5q0 84 -14 121z" />
<glyph unicode="l" horiz-adv-x="919" d="M102 1282q0 16 66 47q78 35 94 37q35 -25 47 -238q8 -154 13 -268q0 -27 1 -55.5t2 -45t1 -22.5q0 -190 -15 -434q231 0 389 -82v141q0 18 68 50q66 33 92 32q2 0 6 -2q0 -23 1 -58.5t1 -49.5v-82q0 -150 -12 -170.5t-72 -48.5q-68 -31 -92 -33q-4 4 -8 10l-10 15 q-16 20 -29 32q-104 113 -338 150v-60q0 -45 -10 -69q-8 -20 -69.5 -47t-96.5 -31l19 412q8 217 8 237q0 41 -17 412q0 12 -4 65q-2 35 -12 93z" />
<glyph unicode="m" horiz-adv-x="1269" d="M102 0q2 12 6.5 51t6.5 64q10 78 18 192q33 352 33 594q0 96 -2 139q-4 78 -8 119l-13 127q0 20 72 49q57 25 94 31q8 -43 15 -147q8 2 17 4t19 4l50 10q43 10 157 70q109 53 158 59q10 -2 10 -12v-29q0 -10 -4 -39q-2 -29 -2 -65q2 0 15.5 3t21.5 5t49 10q39 10 64 23 l94 45q104 53 157 59q6 -6 7 -23q0 -90 -7 -266v-83t-2 -70q0 -23 -1 -60t-1 -51q0 -98 4 -266q2 -125 13 -236q6 -94 16 -159q8 -49 8 -72q0 -18 -67 -47q-74 -31 -99 -33l-18 164q-8 80 -16 248q-6 141 -6 321v107q0 20 1 70.5t1 80.5q4 229 4 258q0 20 2 29 q-92 -43 -99 -45l-141 -59q-4 -197 -4 -236v-129q0 -291 14 -498q12 -131 17 -159q10 -61 10 -72q0 -18 -72 -47q-78 -31 -98 -33l-16 162q-12 123 -18.5 264t-6.5 303q0 96 2 176q4 156 4 178v31q0 6 1 18.5t1 20.5t1 21.5t1 19.5v31v26q0 4 -1 13.5t-1 13.5 q-104 -51 -237 -107q2 -59 4 -106q0 -16 1 -44t1 -40q0 -166 -49 -786q-2 -8 -3 -26.5t-1 -27.5q-4 -47 -9 -61q-12 -23 -71 -49q-8 -4 -54 -21q-14 -6 -43 -10z" />
<glyph unicode="n" horiz-adv-x="958" d="M102 0q0 25 33 289q39 317 39 649q0 20 -1 53t-1 45q0 33 -4 74q-2 31 -7 77t-7 60l-4 39q0 18 71 49q57 20 96 31q8 -45 11 -70q4 -49 4 -82q8 2 25.5 5.5t23.5 5.5q8 2 32.5 5t39.5 7q39 8 184 70q123 49 172 53l8 -4l-8 -547q0 -416 39 -657q8 -47 8 -70 q0 -16 -70 -47q-63 -29 -90 -35q-10 14 -16 70q-23 254 -29 381q-10 180 -10 278q0 14 1 52t1 63q2 61 4 160q2 92 4 159v115l-129 -49l-184 -66q4 -94 4 -182q0 -77 -6 -178q-2 -39 -21 -230l-24 -260q-8 -102 -12 -147q0 -29 -11 -86q-9 -22 -73 -49l-27.5 -11.5 t-24.5 -9.5q-12 -6 -41 -10z" />
<glyph unicode="o" horiz-adv-x="933" d="M102 1176q0 16 72 53q59 30 86 29q5 0 8 -1q80 14 211 43q100 20 291 66l6 -14q-10 -442 -10 -547q0 -227 10 -373q10 -158 35 -328l23 -18q-18 -25 -84 -55q-65 -31 -99 -31q-8 0 -8 25q-102 66 -305 65q-10 0 -30.5 -1t-31.5 -1q-41 0 -63 -2q-55 -25 -80 -27 q0 35 2 66q6 102 8 119q8 117 13 237q4 160 4 238q0 311 -29 391q0 2 -4 10l-12 23q-13 19 -13 33zM291 1212q2 -8 10 -59q4 -31 8 -100q8 -166 13 -232q0 -23 1 -47t2 -37.5t1 -19.5q0 -106 -7 -244q-2 -59 -20 -309q119 12 195 12q39 0 61 -2q49 -4 72 -8q-16 145 -23 270 q-6 138 -6 289q0 512 18 557q-14 -4 -54 -13l-62 -14z" />
<glyph unicode="p" d="M102 1282q0 18 70 49q74 35 94.5 35t38.5 -129q4 4 23 10q14 4 260 62l134 30.5l88 20.5l26 6q3 0 12 -18q16 -53 16 -170q0 -61 -2 -103q-3 -61 -6 -141t-6 -141q-2 -41 -2 -103v-26q0 -4 1 -17.5t1 -22t1 -21.5t1 -19v-29q0 -18 -70 -49q-45 -18 -55 -21 q-6 -2 -19.5 -5t-19.5 -5q-113 82 -358 82h-6q0 -6 -1 -16.5l-2.5 -27.5t-1.5 -30q-4 -53 -6 -131q-4 -86 -4 -116q0 -18 -1 -48t-1 -43q0 -43 -10 -67q-8 -20 -69.5 -47t-94.5 -31q0 39 2 74q8 129 8 137q12 213 15 262q4 152 4 191q0 43 -1 111.5t-1 94.5q0 66 -4 144 q-4 70 -25 194q-23 77 -28 77q-1 0 -1 -3zM307 1194q10 -195 15 -358q4 -188 4 -205q35 4 100 8q31 2 88 2q113 0 166 -10q0 49 2 84q0 8 2 53t4 74q10 154 10 213q0 113 -22 225l-154 -35q-47 -10 -100.5 -23.5t-114.5 -27.5z" />
<glyph unicode="q" horiz-adv-x="933" d="M102 1176v2q0 14 74 49q66 29 89 29q2 0 3 -1q80 14 211 43l88 19.5t85.5 21t117.5 27.5q-12 -154 -12 -303q0 -6 1 -37t1 -55.5t3 -82t3 -83.5q8 -307 10 -352q8 -127 15 -187q12 -109 20 -164l23 -16q-18 -25 -82 -55.5t-101 -30.5q-8 0 -8 23q-53 35 -121 51 q-47 -156 -114 -236q-25 -25 -72 -47q-55 -27 -88 -29l-4 2v3q29 51 47 90q6 12 17 36.5l21.5 47t18.5 45.5q4 16 12 43q6 29 19 59h-92q-29 0 -74 -4q-49 -22 -80 -25q0 35 2 66q6 92 8 117q8 117 13 213q4 127 4 172q0 132 -19 356q-2 27 -12 78q-11 56 -27 115zM291 1210 q2 -8 10 -59q4 -31 8 -100q8 -162 13 -230q0 -23 1 -47t2 -37.5t1 -19.5q0 -106 -7 -244q-2 -66 -20 -311q37 4 102 8q33 2 93 2q78 0 133 -6q-16 147 -23 274q-6 144 -6 301q0 502 16 541q-124 -33 -323 -72z" />
<glyph unicode="r" d="M102 1282q0 18 70 49q74 35 94 35q18 0 37 -129q80 29 252 59q156 29 256 64q22 6 25 6t12 -18q16 -55 16 -183q0 -59 -2 -98q-2 -55 -6 -139q-2 -76 -6 -137q-2 -39 -2 -101v-26q0 -6 1 -19.5t1 -22t1 -20.5t1 -18v-29q0 -14 -68 -49q-72 -33 -90 -33h-8 q-104 74 -266 82q29 -115 149 -287q182 -260 258 -311q10 -6 11 -8q0 -14 -68 -47q-61 -29 -92 -37l-8 4q-120 120 -209 233q-84 106 -150 226q-2 -115 -12 -248q-16 -29 -76 -51q-41 -16 -90 -29q0 37 2 72q8 127 8 137q8 135 13 244q4 143 4 194q0 89 -19 418q0 14 -4 63 q0 10 -10 91q-6 35 -16 51q-1 2 -4 6zM307 1194q10 -190 15 -363q4 -188 4 -202q102 10 188 10q102 0 164 -12q0 51 2 86q6 88 8 122.5t8 122.5q2 35 2 91q0 117 -22 229l-154 -35z" />
<glyph unicode="s" horiz-adv-x="892" d="M102 1282q0 15 68 49q70 35 88 35q29 0 45 -109q338 109 451 109q8 0 20 -4l-6 -6l-4 -3q-4 -3 -6 -5q-66 -53 -72 -129q-2 -96 -24 -127q-23 -29 -74 -52q-4 -2 -17.5 -6t-21.5 -8q-4 -2 -53 -16q3 184 110 276l-127 -26l-174 -39q8 -76 12 -134q4 -74 5 -90 q0 -127 -25 -366q43 8 125 14q47 4 156 4q126 0 202 -31q0 -6 1 -24.5t1 -28.5v-34.5t2 -38.5q2 -49 4 -76q0 -10 1.5 -27.5t1.5 -23.5q0 -230 -43 -289q-16 -23 -74 -49q-59 -27 -92 -27q-53 80 -189 80q-8 0 -22.5 -1t-22.5 -1q-16 0 -49 -4q-6 -23 -68 -45 q-70 -27 -96 -29q0 2 1 10t1 15q2 8 2 18v20q2 14 4 37q0 6 1 14.5t1 12.5q0 20 -12 59q-10 33 -10 58q0 16 72 47l31.5 11t23.5 9q14 6 39 11q23 -49 22 -113q0 -29 -6 -78q164 33 246 33q6 0 16.5 -1t14.5 -1q23 0 32 -2q4 45 4 71q0 12 1.5 37t1.5 37q0 16 -1.5 50 t-1.5 53q0 33 -4 118q-53 41 -182 41q-33 0 -98 -4q-70 -4 -105 -8q-51 -20 -100 -33v2l4 41q0 6 2 34t4 46q8 88 11 135q4 86 4 127q0 172 -17 246q0 16 -20 66q-15 40 -15 63z" />
<glyph unicode="t" horiz-adv-x="788" d="M-49 1206q10 27 82 54q66 23 106 30v-2q6 0 28.5 1t37.5 1q20 0 94 4q14 12 76 41q72 31 82 31q12 0 12 -59q49 6 113 12q25 2 80 8t79 8l99 13l2 -5q-16 -18 -51 -36q-72 -41 -152 -50q-29 -4 -82 -8q-12 0 -41 -3t-43 -5q0 -4 5 -55t7 -78q2 -43 2 -129 q0 -190 -22 -408l-21 -202l-20 -203q0 -31 -12 -86q-12 -20 -72 -49q-58 -28 -92 -31q0 10 33 285q39 326 38 612q0 170 -16 328q-225 -23 -321 -23q-19 0 -31 4z" />
<glyph unicode="u" horiz-adv-x="962" d="M102 1284.5q0 20.5 72 50.5q66 29 94 31q25 -162 37 -348q12 -178 12 -377q0 -119 -2 -201q-3 -123 -6 -295q114 22 191 31q58 7 98 7q13 0 25 -1q-8 106 -9 205q0 238 48 670q2 78 26 229q12 20 76 51q59 29 90 29q6 0 6 -4q0 4 -2 0q-4 -6 -6 -23q0 -33 -8 -82 q0 -6 -10 -73q-2 -12 -5.5 -47t-7.5 -58q-39 -336 -39 -633q0 -96 2 -135q2 -55 7 -94q0 -8 2 -24q0 -8 3 -18.5t5 -27.5q8 -35 8 -67q0 -18 -74 -49q-12 -4 -31.5 -11.5t-23.5 -9.5q-16 -6 -41 -10q-6 49 -84 78q-55 20 -125 20q-49 0 -123 -12q-27 -27 -78 -53 q-61 -33 -88 -33q4 47 9 156q2 57 2 190q0 281 -11 520q-9 215 -30 351q-9 47 -9 67.5z" />
<glyph unicode="v" horiz-adv-x="897" d="M51 1284q0 18 72 49q72 33 94 33l6 -8q6 -16 16.5 -41t20.5 -53q12 -33 37 -111q74 -227 158 -735l157 594q10 33 19 75l24 109q4 39 21 90q12 22 74 49q72 31 90 31q8 0 8 -6q0 -20 -12 -57q-12 -35 -14.5 -41.5t-5.5 -13.5l-1 -3q-8 -29 -15 -61.5t-18 -73.5l-49 -195 l-59 -217l-80 -305q-8 -57 -21 -119q-10 -45 -41 -161q-45 -96 -182 -113q0 4 -3 21.5t-10 52.5t-13 73l-68 377q-18 111 -57 289q-10 47 -60 234q-6 23 -17 56.5t-11 35.5q-8 25 -27 67q-33 72 -33 78z" />
<glyph unicode="w" horiz-adv-x="1275" d="M102 1282q0 16 72 51q70 31 94 33q14 -25 31 -348q2 -35 6 -112t6 -111q2 -63 2 -158q0 -131 -8 -490q144 39 228 40q6 0 12 -1q6 197 6 375q0 195 -10 375q-10 172 -27 276q-4 37 -4 70q0 18 70 49q12 6 32.5 13.5t22.5 9.5q22 9 37 12q8 -14 10 -74l25 -403 q8 -145 8 -250q0 -88 -2 -172q-2 -125 -6 -330q119 41 237 41q-4 74 -4 107q0 18 -1 53t-1 51q0 227 29 549l26 260q0 37 8 86q10 25 72 51q66 31 94 31q6 0 7 -4q0 -2 -5 -14l-4 -13l-6 -57q-29 -303 -39 -455q-14 -233 -14 -354q0 -100 2 -141q3 -61 6 -111l12 -133 q0 -15 -67 -49q-70 -35 -90 -35q-43 51 -72 70q-39 27 -104 26h-45q-8 0 -23.5 -3t-17.5 -3q-4 -4 -29 -24q-12 -10 -49 -31q-57 -31 -88 -35q-2 37 -64 70q-59 33 -104 32q-4 0 -15.5 -1t-17.5 -1q-10 0 -35 -4q0 -23 -69 -57q-70 -37 -99 -39v53v105q0 33 4 147 q2 57 2 148q0 23 1 56.5t1 45.5q0 229 -8 375q-10 174 -26 282q-9 52 -9 70z" />
<glyph unicode="x" horiz-adv-x="872" d="M51 1282q0 18 70 49l27.5 11.5t23.5 9.5q29 12 41 14l4 -4q154 -205 264 -485q90 184 123 274q2 12 21 61q14 37 32 76q29 29 74 49q57 27 92 29v-6q-68 -203 -291 -631l168 -524l15.5 -46.5l12.5 -35.5t8 -24.5t5 -14.5l2 -4q0 -18 -69 -49q-71 -31 -99 -31q-6 0 -6 16 l-34 107l-50 158l-67 221q-25 -46 -56 -117l-73 -164q-12 -49 -56 -143q-20 -25 -75 -51q-63 -27 -90 -27q2 80 297 653q-121 348 -248 533q-66 100 -66 96z" />
<glyph unicode="y" horiz-adv-x="937" d="M51 1282q0 18 72 49q12 6 32.5 13.5t22.5 9.5q22 9 37 12q25 -31 39 -229q2 -39 8 -144q4 -82 4 -106q0 -78 -2 -131q-2 -74 -6 -193q127 29 264 29q4 0 14.5 -1t18.5 -1q29 0 45 -2q2 20 7 79.5t7 92.5q12 166 27 301q2 86 29 221q18 27 71 51q68 31 90 33l5 -2 q0 -63 -15 -143q-20 -123 -20 -142q-16 -139 -27 -331q-8 -150 -8 -349q0 -219 18 -303l4 -16q0 -12 -71 -47q-76 -33 -92 -33q-6 0 -4 16q-55 80 -203 80q-14 0 -51 -4q-4 0 -28 -2t-36 -4q-14 -25 -76 -53q-59 -29 -92 -33q0 25 6 78t6 78q0 39 -6 57q-14 37 -14 49 q0 8 70 41q70 31 94 33q23 -23 22 -113v-43q0 -12 -4 -37q88 14 180 27q55 7 92 7q12 0 23 -1q-2 31 -4 85t-2 61q-2 45 -2 129q-23 6 -78 26q-68 29 -127 29q-25 0 -82 -4q-4 0 -40 -2t-54 -4l-59 -25q-20 -8 -66 -20q0 59 6 175.5t6 178.5q0 104 -6 184q-8 94 -14 141 q0 6 -6 25l-13 49q-12 45 -12 78z" />
<glyph unicode="z" horiz-adv-x="907" d="M72 0q0 4 2 11q4 8 4 12q4 16 10 32q59 160 223 486q-35 -8 -96 -19q-58 -9 -135 -18q59 66 266 98q211 408 305 660q-109 -16 -344 -68v-14q0 -2 1 -10.5t1 -12.5v-37q0 -51 -8 -69q-10 -23 -72 -50q-12 -6 -33.5 -13t-23.5 -7q-27 -10 -39 -10v30q0 10 4 43q2 25 4 43 v33v33q-2 20 -4 47q-4 37 -4 47v35q0 20 72 51q35 18 55 23q6 2 14.5 4t14.5 4t10 2q2 -8 3 -28.5t1 -30.5q2 -12 3 -40t1 -42q74 27 129 41q57 16 139 32l11 2q47 6 55 9q12 2 38 8t36 8q37 25 106 41l2 -4q0 -41 -86 -225q-90 -195 -254 -512l111 24q63 14 113 15h10l4 -1 l4 -1q-6 -6 -37 -25q-66 -37 -113 -49l-40 -8q-8 -2 -20.5 -4.5t-31 -5.5l-30.5 -5q-70 -137 -111 -225q-35 -78 -84 -203q172 92 295 92q53 0 115 -22v88q0 14 1 36.5t1 33.5q0 18 75 51q10 4 39 12q14 4 52 16v-235q0 -100 -15 -129q-12 -23 -71 -49q-12 -6 -33 -15 l-21 -8q-18 -8 -39 -8q-86 145 -284 145q-18 0 -37 -6q-16 -6 -34.5 -16t-33.5 -23l-30 -22q-14 -27 -74 -51q-59 -27 -92 -27z" />
<glyph unicode="{" horiz-adv-x="950" d="M154 621q8 14 69 49q59 33 82 32h23q8 0 32 -4q25 -2 58 -2h22q4 0 11.5 1t11.5 1q6 18 6 31q0 74 -106.5 186.5t-106.5 171.5q0 96 160 191q152 88 270 88q43 0 72 -6l2 -4q-6 -14 -72 -49q-59 -33 -82 -33q-12 0 -18 2q-2 0 -8.5 1t-12.5 3t-12 2h-10q-8 2 -19 2h-18 q-10 -2 -23 -4q-61 -59 -61 -119q0 -52 104 -166q104 -117 105 -188q0 -78 -131 -135q90 -29 90 -107q0 -49 -55.5 -129t-55.5 -133q0 -106 97 -166q90 -53 221 -53q-10 -25 -74 -53q-66 -31 -94 -31q-139 0 -223 57q-94 63 -95 176q0 53 60 132q57 76 57 120q0 29 -22 58 q-39 49 -111 57q-18 2 -36.5 5t-35.5 5q-28 3 -71 11z" />
<glyph unicode="|" horiz-adv-x="509" d="M154 8q0 -7 2 3q1 6 4 22q0 2 1 10t2 23.5t1 31.5q0 18 4 74.5t6 93.5q9 154 12 277q4 164 4 215q0 162 -14 346q0 10 -4 47q-2 18 -6 68q-8 51 -8 67q0 20 71 49q59 25 97 31q20 -178 24 -262q6 -133 6 -266q0 -82 -2 -148q0 -47 -3 -110.5t-5 -141.5q-8 -338 -20 -352 q-25 -29 -74 -53q-59 -31 -94 -33q-4 4 -4 8z" />
<glyph unicode="}" horiz-adv-x="950" d="M154 1282q6 18 73 49q70 35 95 35q133 0 223 -59q92 -66 92 -177q0 -55 -57 -133q-57 -76 -58 -120q0 -29 23 -56q31 -39 114 -55q14 -2 23.5 -3t21 -4t23.5 -5q39 -6 68 -11l2 -2q-6 -12 -72 -47q-66 -33 -82 -32h-22q-4 0 -15.5 1t-17.5 1t-17.5 1t-15.5 1h-23h-26 q-4 0 -11.5 -1t-9.5 -1q0 -2 -1 -6.5t-1 -6.5v-18q0 -74 106.5 -186.5t106.5 -170.5q0 -98 -161 -190q-150 -86 -273 -86q-49 0 -72 12q4 16 68 47q63 33 84 33q2 0 8 -1t10 -1q16 0 26.5 -2t27.5 -2q4 0 10 -1t8 -1h19q4 0 8 1t6 1q63 61 63 115q0 55 -104 168 q-106 115 -106.5 188.5t133.5 134.5q-94 31 -95 105q0 47 58 129q55 80 55 135q0 106 -96 166q-86 55 -219 55z" />
<glyph unicode="~" horiz-adv-x="1290" d="M154 862q0 6 16 41q66 143 217 225q119 66 207 66q82 0 121 -64l28 -61q14 -29 27 -59q37 -70 117 -72q53 57 76 141q6 29 10 41q6 18 71 49q70 33 91 33l4 -2q0 -151 -166 -258q-143 -90 -246 -90q-80 0 -121 68l-28 63q-8 16 -14.5 32.5l-12.5 31.5q-39 68 -121 67 q-53 -49 -94 -139q-2 -4 -6 -17l-11 -24q-8 -16 -71 -47q-72 -31 -88 -31q-6 0 -6 6z" />
<glyph unicode="&#x85;" horiz-adv-x="1583" d="M154 57q0 14 69 47q74 35 92 35q23 0 154 -53q-4 -10 -73.5 -45t-84.5 -35q-16 0 -88 23q-69 20 -69 28zM621 57q0 14 69 47q74 35 92 35q20 0 152 -53q-6 -14 -72 -45q-66 -35 -84 -35q-16 0 -88 23q-69 22 -69 28zM1118 63q0 12 72 48q74 35 90 34q20 0 152 -53 q-4 -12 -72 -47q-63 -33 -81.5 -33t-90.5 23q-70 20 -70 28z" />
<glyph unicode="&#x2026;" horiz-adv-x="1583" d="M154 57q0 14 69 47q74 35 92 35q23 0 154 -53q-4 -10 -73.5 -45t-84.5 -35q-16 0 -88 23q-69 20 -69 28zM621 57q0 14 69 47q74 35 92 35q20 0 152 -53q-6 -14 -72 -45q-66 -35 -84 -35q-16 0 -88 23q-69 22 -69 28zM1118 63q0 12 72 48q74 35 90 34q20 0 152 -53 q-4 -12 -72 -47q-63 -33 -81.5 -33t-90.5 23q-70 20 -70 28z" />
<glyph horiz-adv-x="624" d="M154 1282q6 18 69 49q66 35 88 35q8 0 17 -6q23 -18 143 -240q0 -16 -68 -47q-66 -29 -92 -35q-63 138 -157 244z" />
<glyph unicode="&#x2018;" horiz-adv-x="624" d="M154 1282q6 18 69 49q66 35 88 35q8 0 17 -6q23 -18 143 -240q0 -16 -68 -47q-66 -29 -92 -35q-63 138 -157 244z" />
<glyph horiz-adv-x="663" d="M154 1051l1 1l5 5t7 9t10 13t13 17q14 16 25 39l29 59q29 66 59 98q14 16 66 33q6 2 19 6l20 6l41 13q45 16 53 16l3 -1q3 -1 5 -1l-78 -135q-53 -90 -88 -119q-27 -18 -90 -41q-70 -25 -96 -25q-4 1 -4 7z" />
<glyph unicode="&#x2019;" horiz-adv-x="663" d="M154 1051l1 1l5 5t7 9t10 13t13 17q14 16 25 39l29 59q29 66 59 98q14 16 66 33q6 2 19 6l20 6l41 13q45 16 53 16l3 -1q3 -1 5 -1l-78 -135q-53 -90 -88 -119q-27 -18 -90 -41q-70 -25 -96 -25q-4 1 -4 7z" />
<glyph horiz-adv-x="974" d="M154 1288q0 10 69 41q68 31 92 33l7 -2l71 -96l103 -136q-6 -22 -68 -49q-12 -6 -33 -14l-20 -8q-20 -8 -39 -13l-8 5q-174 231 -174 239zM489 1282q0 14 70 49t90 35q2 0 5 -1l3 -1q8 -8 33 -43l60 -82q74 -109 73 -119q0 -16 -67 -47q-68 -29 -94 -35l-7 2 q-6 12 -71 111l-56 84l-18 22z" />
<glyph unicode="&#x201c;" horiz-adv-x="974" d="M154 1288q0 10 69 41q68 31 92 33l7 -2l71 -96l103 -136q-6 -22 -68 -49q-12 -6 -33 -14l-20 -8q-20 -8 -39 -13l-8 5q-174 231 -174 239zM489 1282q0 14 70 49t90 35q2 0 5 -1l3 -1q8 -8 33 -43l60 -82q74 -109 73 -119q0 -16 -67 -47q-68 -29 -94 -35l-7 2 q-6 12 -71 111l-56 84l-18 22z" />
<glyph horiz-adv-x="985" d="M154 1059q23 27 118 160q18 25 23 30q16 23 31 41q16 16 94 45q43 18 61 23q33 8 43 8h4q4 0 4 -4q0 -2 -6 -8l-67 -94l-101 -130q-18 -20 -94 -48.5t-108 -28.5zM463 1051q10 16 23.5 32.5t27.5 36.5l57 86l10.5 16.5t14.5 20.5l33 49q23 23 94 47q76 29 108 29l3 -2 q-2 -2 -23 -39q-8 -14 -21.5 -35.5l-31.5 -50.5q-70 -104 -88 -119q-23 -23 -97 -47q-31 -10 -63 -18q-27 -6 -47 -6z" />
<glyph unicode="&#x201d;" horiz-adv-x="985" d="M154 1059q23 27 118 160q18 25 23 30q16 23 31 41q16 16 94 45q43 18 61 23q33 8 43 8h4q4 0 4 -4q0 -2 -6 -8l-67 -94l-101 -130q-18 -20 -94 -48.5t-108 -28.5zM463 1051q10 16 23.5 32.5t27.5 36.5l57 86l10.5 16.5t14.5 20.5l33 49q23 23 94 47q76 29 108 29l3 -2 q-2 -2 -23 -39q-8 -14 -21.5 -35.5l-31.5 -50.5q-70 -104 -88 -119q-23 -23 -97 -47q-31 -10 -63 -18q-27 -6 -47 -6z" />
<glyph horiz-adv-x="1003" d="M154 629q0 16 67 47q57 25 90 31q41 6 109 8q29 2 108.5 5l130.5 5q33 0 64 1t52.5 2t36.5 1h18h20v-2q0 -14 -66 -45q-61 -29 -92 -33q-83 -12 -233 -12q-31 0 -79 -1t-65 -1q-47 0 -92 -4q-16 -4 -28 -4q-27 -4 -39 -4l-1 2q-1 2 -1 4z" />
<glyph unicode="&#x2013;" horiz-adv-x="1003" d="M154 629q0 16 67 47q57 25 90 31q41 6 109 8q29 2 108.5 5l130.5 5q33 0 64 1t52.5 2t36.5 1h18h20v-2q0 -14 -66 -45q-61 -29 -92 -33q-83 -12 -233 -12q-31 0 -79 -1t-65 -1q-47 0 -92 -4q-16 -4 -28 -4q-27 -4 -39 -4l-1 2q-1 2 -1 4z" />
<glyph horiz-adv-x="1003" d="M154 629q0 16 67 47q57 25 90 31q41 6 109 8q29 2 108.5 5l130.5 5q33 0 64 1t52.5 2t36.5 1h18h20v-2q0 -14 -66 -45q-61 -29 -92 -33q-83 -12 -233 -12q-31 0 -79 -1t-65 -1q-47 0 -92 -4q-16 -4 -28 -4q-27 -4 -39 -4l-1 2q-1 2 -1 4z" />
<glyph unicode="&#x2014;" horiz-adv-x="1003" d="M154 629q0 16 67 47q57 25 90 31q41 6 109 8q29 2 108.5 5l130.5 5q33 0 64 1t52.5 2t36.5 1h18h20v-2q0 -14 -66 -45q-61 -29 -92 -33q-83 -12 -233 -12q-31 0 -79 -1t-65 -1q-47 0 -92 -4q-16 -4 -28 -4q-27 -4 -39 -4l-1 2q-1 2 -1 4z" />
<glyph horiz-adv-x="1476" d="M154 1262q12 33 125 55v-2h43q16 0 61 4q72 47 104 47q6 0 7 -39q66 4 92 8l48 5q48 5 75 10q14 2 51 16q4 -23 8 -98q14 2 57 12l17 6l26 10q8 4 29 13.5t33 15.5q68 35 104 41q6 0 6 -8q0 -27 -2 -45q0 -6 -1 -14.5t-1 -10.5v-18q14 2 58 12q31 6 104 43q68 35 102 41 q4 -4 5 -16q0 -23 -5 -174v-101q0 -16 -1 -40.5t-1 -33.5q0 -145 7 -253q8 -131 16 -185q2 -18 2 -47q0 -12 -45 -31q-37 -16 -61 -20q-27 225 -27 483v72q0 12 1 45t1 53q2 76 2 170q0 18 -25 6l-133 -55q0 -51 -1 -109.5t-2 -89t-1 -43.5q0 -141 6 -249q8 -131 17 -185 q4 -37 4 -47q0 -8 -45 -31q-12 -6 -66 -20q-27 252 -26 479q0 20 4 164q2 72 2 164q0 39 -27 22q-16 -8 -131 -57q2 -39 4 -70v-57q0 -45 -8 -160q0 -10 -8 -138t-17 -220q0 -10 -4 -35q-2 -6 -3 -20.5t-1 -20.5q-10 -16 -47 -31q-37 -16 -63 -20q2 10 5 35.5l5 42.5 q2 14 3 33.5t3 46t4 45.5q6 70 16 225q6 98 7 166l-4 47q0 4 -4.5 73.5t-6.5 123.5q-25 -6 -51 -9q-10 0 -44 -5t-56 -7q10 -102 10 -172q0 -20 -3 -64.5t-3 -56.5q-3 -68 -12 -147q-12 -141 -17 -195q-6 -68 -6 -74q0 -16 -10 -57q-9 -15 -49 -31q-31 -16 -60 -20 q0 25 4 55q12 90 17 131q14 96 20 213q6 102 6 193q0 82 -2 117q-4 66 -8 98q-102 -8 -125 -10q-70 -4 -90 -5q-2 1 -18 5z" />
<glyph unicode="&#x2122;" horiz-adv-x="1476" d="M154 1262q12 33 125 55v-2h43q16 0 61 4q72 47 104 47q6 0 7 -39q66 4 92 8l48 5q48 5 75 10q14 2 51 16q4 -23 8 -98q14 2 57 12l17 6l26 10q8 4 29 13.5t33 15.5q68 35 104 41q6 0 6 -8q0 -27 -2 -45q0 -6 -1 -14.5t-1 -10.5v-18q14 2 58 12q31 6 104 43q68 35 102 41 q4 -4 5 -16q0 -23 -5 -174v-101q0 -16 -1 -40.5t-1 -33.5q0 -145 7 -253q8 -131 16 -185q2 -18 2 -47q0 -12 -45 -31q-37 -16 -61 -20q-27 225 -27 483v72q0 12 1 45t1 53q2 76 2 170q0 18 -25 6l-133 -55q0 -51 -1 -109.5t-2 -89t-1 -43.5q0 -141 6 -249q8 -131 17 -185 q4 -37 4 -47q0 -8 -45 -31q-12 -6 -66 -20q-27 252 -26 479q0 20 4 164q2 72 2 164q0 39 -27 22q-16 -8 -131 -57q2 -39 4 -70v-57q0 -45 -8 -160q0 -10 -8 -138t-17 -220q0 -10 -4 -35q-2 -6 -3 -20.5t-1 -20.5q-10 -16 -47 -31q-37 -16 -63 -20q2 10 5 35.5l5 42.5 q2 14 3 33.5t3 46t4 45.5q6 70 16 225q6 98 7 166l-4 47q0 4 -4.5 73.5t-6.5 123.5q-25 -6 -51 -9q-10 0 -44 -5t-56 -7q10 -102 10 -172q0 -20 -3 -64.5t-3 -56.5q-3 -68 -12 -147q-12 -141 -17 -195q-6 -68 -6 -74q0 -16 -10 -57q-9 -15 -49 -31q-31 -16 -60 -20 q0 25 4 55q12 90 17 131q14 96 20 213q6 102 6 193q0 82 -2 117q-4 66 -8 98q-102 -8 -125 -10q-70 -4 -90 -5q-2 1 -18 5z" />
<glyph unicode="&#xa2;" horiz-adv-x="1003" d="M154 1118q4 12 71 47q74 35 90 35q29 0 41 -86q2 0 12.5 3t16.5 5l39 11v45q2 10 2 26v21q0 33 -2 41l-4 22v-2q0 16 67 47q70 33 95 33q2 0 2 -12q0 -2 1 -9.5t1 -11.5q0 -18 2 -28q4 -20 4 -29v-21q0 -23 -2 -38q-3 -25 -6 -56l170 27q59 8 98 8v-2q-29 -51 -33 -57 q-12 -31 -12 -62q0 -27 -12 -88q-8 -16 -72 -47q-59 -29 -88 -29q-6 0 -6 7l3 12q2 9 3 14l4 43l4 43q6 39 41 90q-45 -6 -244 -39l-28 -4l-52 -10q9 -71 13 -123q4 -70 4 -88q0 -59 -6 -145t-19 -197q131 25 322 18q0 2 -1 8.5t-1 10.5v7t-1 8t-1 12q-2 16 -4 28 q0 4 -1 11.5t-1 9.5q0 14 69 49q74 35 94 35l7 -2q4 -20 6 -56q2 -27 2 -100q0 -43 -4 -64q-6 -18 -67.5 -48.5t-88.5 -30.5h-4l-3 1q-3 1 -5 1q-39 27 -86 32v-41q0 -55 -9 -79q-4 -20 -71 -52q-35 -18 -55 -22q-33 -8 -37 -8v2v39l4 57q4 37 4 53v39v19q-29 -2 -66 -5 q-49 -4 -78 -6q-58 -28 -92 -30v2q0 4 13 114q9 74 12 136q4 82 4 108q0 270 -59 348z" />
<glyph unicode="&#xa3;" horiz-adv-x="1136" d="M154 788q6 16 69.5 47t89.5 31l-6 82q-4 49 -8 113q0 25 -6 65q-2 10 -5 42t-7 53l-23 61q0 12 72 47q78 37 90 37q23 0 39 -119q350 119 497 119q-6 -6 -18 -16q-33 -25 -43 -62l-1 -9q-1 -9 -1 -25.5v-36.5q0 -29 -6 -46q-10 -25 -74 -51q-59 -25 -94 -28v14q0 2 1 10 t1 14v41q0 74 61 119q-111 -23 -317 -78q9 -114 12 -202.5t6 -153.5q51 0 201 10q37 4 119 8q35 2 86 3q4 0 6 -3q-12 -18 -53 -38q-68 -39 -107 -41q-49 -4 -104 -7q-70 -4 -148 -8q0 -258 -24 -651q209 35 282 35q8 0 21.5 -1t19.5 -1q25 0 35 -2q-2 23 -5 52.5t-3 35.5 l-2 31q0 16 72 47q61 29 94 32q12 -40 12 -110q0 -121 -33 -168q-12 -22 -73 -49q-58 -28 -86 -31q-78 59 -93 63q-35 16 -120 17q-41 0 -64 -2q-45 -4 -67 -8q-23 -18 -76 -43q-53 -23 -82 -27q0 23 2 57q4 53 10 156q16 291 16 436l-4 123q-115 0 -159 10z" />
<glyph unicode="&#xa5;" horiz-adv-x="1087" d="M154 160q4 18 67 49q63 33 86 33q20 0 60 -6q29 -4 34 -5q4 0 11.5 -1t9.5 -1q-2 23 -2 68q0 10 -1 30.5t-1 28.5q-23 -2 -53 -2q-8 0 -18 -1l-9 -1q-127 0 -156 15q2 14 70 49q66 35 84 35q2 0 9 -1t11 -1q6 -2 11.5 -2.5t13.5 -0.5q14 -2 25 -4q4 0 9 -1t7 -1v37 q0 6 1 18.5t1 20.5q6 59 16 70l-55 -4l-57 -4q-33 -16 -111 -39q0 6 1 27.5t1 35.5t3 46t3 44q0 10 3 44t3 48v66q0 180 -22 301q0 6 -16 68q-10 45 -11 67q0 20 72 49q70 31 96 31q6 0 2 -12l17 -82q29 -150 28 -330q0 -47 -2 -96q0 -35 -3 -83t-5 -114q123 23 313 21 q-4 33 -4 47v39q0 76 13 176q12 104 36 237q4 35 9 50q0 2 5 26.5t9 38.5q10 25 73.5 51.5t94.5 30.5q-12 -55 -33 -166q-20 -102 -31 -194q-10 -98 -10 -170q0 -88 10 -150q4 -21 9 -50l6 -26q0 -16 -68 -47q-66 -29 -94 -33q-31 45 -133 54q0 -23 -2 -60q0 -18 -4 -84 l239 13l56 4h4q-14 -23 -54 -41q-68 -35 -118 -41q-41 -4 -63.5 -4t-63.5 -4q0 -59 12 -134l93.5 5.5t82.5 5.5q86 4 88 4l2 -2q-10 -18 -53 -39q-25 -16 -51 -27q-25 -9 -43 -12q-8 0 -25.5 -1t-26 -1t-26.5 -1t-27 -1q20 -80 21 -86q0 -16 -70 -47q-4 -2 -59 -23 q-23 -8 -35 -8q-14 31 -20 59q-2 12 -17 88h-35h-43q-154 0 -198 11z" />
<glyph unicode="&#xa9;" horiz-adv-x="1828" d="M154 403q0 186 165 385q276 332 623 332q297 0 502 -127q231 -139 231 -377q0 -176 -141 -317q-129 -129 -365 -215q-240 -84 -442 -84q-240 0 -397 100q-176 110 -176 303zM319 485q0 -186 173 -299q156 -104 389 -104q236 0 397 78q104 51 170 164q59 98 59 213 q0 238 -237 378q-212 123 -510 123q-205 -74 -324 -221q-117 -145 -117 -332zM578 797q6 14 69 47q66 33 88 33q20 0 35 -54q319 51 412 51h8q-8 -8 -35 -45l-63 -90q-14 -18 -72 -45q-59 -29 -88 -30q23 53 29 61q4 8 17 31.5t21 36.5l-92 -11l-127 -14q12 -109 13 -188 q0 -98 -23 -297q61 9 123 12q82 4 129 4q-25 55 -25 72q0 14 74 49q33 16 57 22l37 9q35 -111 35 -140q0 -45 -33 -69q-29 -18 -80 -41q-25 -14 -65 -23q-51 39 -180 39q-115 0 -156 -10q-20 -8 -35 -12l-49 -17q2 12 4 43q2 12 4 27.5l4 32.5q4 31 9 94q2 35 2 117 q0 219 -47 305z" />
<glyph unicode="&#xad;" horiz-adv-x="1003" d="M154 629q0 16 67 47q57 25 90 31q41 6 109 8q29 2 108.5 5l130.5 5q33 0 64 1t52.5 2t36.5 1h20h18v-2q0 -14 -66 -45q-61 -29 -92 -33q-83 -12 -233 -12q-31 0 -79 -1t-65 -1q-47 0 -92 -4q-16 -4 -28 -4q-27 -4 -39 -4l-1 2q-1 2 -1 4z" />
<glyph unicode="&#xae;" horiz-adv-x="1822" d="M154 403q0 197 161 385q244 295 533 328q29 4 45 4h45q297 0 502 -127q231 -141 231 -377q0 -180 -137 -317q-131 -131 -367 -215q-229 -84 -440 -84q-240 0 -397 100q-176 110 -176 303zM317 487q0 -188 175 -299q156 -104 389 -104t391 76q106 51 172 164 q63 102 63 213q0 238 -239 378q-211 123 -512 123q-201 -74 -320 -223.5t-119 -327.5zM559 809q2 12 72 49q66 35 84 35q25 0 37 -68q8 2 63 11q10 2 41 5t49 7l293 45q25 -12 25 -121q0 -6 -1 -20.5t-1 -24.5t-3.5 -32.5t-3.5 -30.5q-4 -49 -4 -64q0 -10 -1 -24.5t-1 -20.5 q0 -4 4 -33q2 -14 2 -33q0 -20 -65 -51q-63 -31 -94 -30q-2 0 -8 2q-12 4 -68 16l-100 18q70 -96 243 -206l35 -21l22.5 -14t24.5 -17v-2q0 -12 -74 -45q-76 -35 -88 -35q-25 0 -145 95l-88 69q-33 25 -55 47q0 -22 -6 -61q-10 -25 -70 -49q-70 -31 -94 -33q0 39 2 66 q4 66 8 94t8 94q2 27 2 70q0 239 -45 313zM760 768q6 -45 10 -123q2 -61 0 -119q41 4 66 4h67h33h57q20 0 49 -4q4 55 7.5 90t3.5 52l4 28v-2q0 61 -17 115l-108 -16z" />
<glyph unicode="&#xb4;" horiz-adv-x="712" d="M154 1452q6 12 18 31q2 2 12.5 18.5t18.5 30.5l55 92q27 47 96 145q18 23 92 50q80 29 107 28q2 0 6 -4l-47 -76q-4 -6 -30.5 -53l-41.5 -72q-55 -86 -88 -114q-33 -27 -112 -60q-46 -18 -80 -18z" />
<glyph unicode="&#x2000;" horiz-adv-x="921" />
<glyph unicode="&#x2001;" horiz-adv-x="1845" />
<glyph unicode="&#x2002;" horiz-adv-x="921" />
<glyph unicode="&#x2003;" horiz-adv-x="1845" />
<glyph unicode="&#x2004;" horiz-adv-x="614" />
<glyph unicode="&#x2005;" horiz-adv-x="460" />
<glyph unicode="&#x2006;" horiz-adv-x="305" />
<glyph unicode="&#x2007;" horiz-adv-x="305" />
<glyph unicode="&#x2008;" horiz-adv-x="229" />
<glyph unicode="&#x2009;" horiz-adv-x="368" />
<glyph unicode="&#x200a;" horiz-adv-x="100" />
<glyph unicode="&#x2010;" horiz-adv-x="1003" d="M154 629q0 16 67 47q57 25 90 31q41 6 109 8q29 2 108.5 5l130.5 5q33 0 64 1t52.5 2t36.5 1h20h18v-2q0 -14 -66 -45q-61 -29 -92 -33q-83 -12 -233 -12q-31 0 -79 -1t-65 -1q-47 0 -92 -4q-16 -4 -28 -4q-27 -4 -39 -4l-1 2q-1 2 -1 4z" />
<glyph unicode="&#x2011;" horiz-adv-x="1003" d="M154 629q0 16 67 47q57 25 90 31q41 6 109 8q29 2 108.5 5l130.5 5q33 0 64 1t52.5 2t36.5 1h20h18v-2q0 -14 -66 -45q-61 -29 -92 -33q-83 -12 -233 -12q-31 0 -79 -1t-65 -1q-47 0 -92 -4q-16 -4 -28 -4q-27 -4 -39 -4l-1 2q-1 2 -1 4z" />
<glyph unicode="&#x2012;" horiz-adv-x="1003" d="M154 629q0 16 67 47q57 25 90 31q41 6 109 8q29 2 108.5 5l130.5 5q33 0 64 1t52.5 2t36.5 1h20h18v-2q0 -14 -66 -45q-61 -29 -92 -33q-83 -12 -233 -12q-31 0 -79 -1t-65 -1q-47 0 -92 -4q-16 -4 -28 -4q-27 -4 -39 -4l-1 2q-1 2 -1 4z" />
<glyph unicode="&#x202f;" horiz-adv-x="368" />
<glyph unicode="&#x205f;" horiz-adv-x="460" />
<glyph unicode="&#x20ac;" horiz-adv-x="1173" d="M154 506q6 16 71 47q70 33 84 33q12 0 41 -4v67v53q0 10 -1 33t-1 35q-113 0 -162 12l-2 2q6 18 70 50q61 31 90 30q0 18 -2 55t-2 55.5t-2 54.5t-2 54q-12 160 -41 201q4 18 70 49q72 33 90 33q23 0 39 -113q332 113 491 113q-23 -39 -61 -137q0 -4 -1 -11.5t-1 -13.5 q-2 -14 -4 -33q-10 -25 -72 -51q-68 -29 -96 -28v47q0 100 65 147q-76 -14 -319 -72l8 -149q2 -35 5 -109.5t5 -101.5q20 0 86 4q8 0 51 2t70 4t119 8q66 4 84 5l2 -5q-12 -16 -52 -36q-29 -16 -59 -31q-18 -8 -49 -12l-104 -7t-148 -8q4 -154 0 -200q27 0 51 2q37 3 99 6 q61 4 81 4q12 0 35 1t31 1q-14 -18 -53 -39q-61 -35 -119 -43q-41 -4 -64 -4q-43 0 -63 -2q-2 -33 -5 -96.5t-3 -94.5q-2 -57 -10 -186l182 27q76 10 94 10q45 0 82 -6q-2 27 -6 59.5t-4 36.5l-4 25q0 16 71.5 46.5t91.5 32.5l3 -2q18 -61 18 -143q0 -78 -39 -133 q-12 -23 -72 -49q-59 -29 -88 -31l-18 18q-4 4 -11.5 12.5t-13.5 14.5q-39 35 -155 35q-63 0 -144 -12q-12 -9 -30 -19l-45 -22q-49 -23 -80 -27q-4 4 -4 20l2 23q0 2 5 43t7 74q3 58 6 141q2 82 6 191q-159 0 -194 14z" />
<glyph unicode="&#xe000;" horiz-adv-x="1365" d="M0 1365h1365v-1365h-1365v1365z" />
<glyph unicode="&#xfb01;" horiz-adv-x="1253" d="M950 8h2q0 2 1 9.5t4 15.5q0 2 1 10t2 23.5t1 31.5q0 18 4 74.5t6 93.5q9 154 12 277q4 164 4 215q0 162 -14 346q0 10 -4 47q0 4 -2 28.5t-4 39.5l-6 47q-2 12 -3 20q0 23 70 49q61 25 98 31q31 -261 31 -528q0 -82 -2 -148q-6 -215 -8 -252q-12 -342 -21 -352 q-25 -29 -73 -53q-59 -31 -95 -33q-4 4 -4 8zM102 1284q0 20 72 51q66 29 94 31q27 -37 31 -111q229 86 463 111q16 -4 33 -2q-2 -6 -17 -16q-45 -41 -61 -76q-12 -31 -12 -90q0 -61 -21 -88q-20 -31 -76 -52q-70 -27 -94 -30q6 182 113 274l-135 -26q-35 -8 -56.5 -12.5 t-55.5 -12.5l-77 -18q6 -86 16 -291q6 -127 7 -213q175 37 430 37l2 -5q-12 -18 -73.5 -48.5t-86.5 -30.5q-33 0 -123 -4q-70 -4 -151 -13q-12 -555 -27 -573q-20 -27 -75.5 -51.5t-94.5 -24.5q23 98 23 221q0 20 4 217q2 49 2 127q0 20 1 50t1 40q0 45 -17 410q0 12 -4 65 q-2 37 -12 91q-19 65 -22 64z" />
<glyph unicode="&#xfb02;" horiz-adv-x="1765" d="M950 1282q0 16 66 47q78 35 94 37q35 -25 47 -238q8 -154 13 -268q0 -27 1 -55.5t2 -45t1 -22.5q0 -190 -15 -434q231 0 389 -82v141q0 18 68 50q66 33 92 32q2 0 6 -2q0 -23 1 -58.5t1 -49.5v-82q0 -150 -12 -170.5t-72 -48.5q-68 -31 -92 -33q-4 4 -8 10l-10 15 q-16 20 -29 32q-104 113 -338 150v-60q0 -45 -10 -69q-8 -20 -69.5 -47t-96.5 -31l19 412q8 217 8 237q0 41 -17 412q0 12 -4 65q-2 35 -12 93zM102 1284q0 20 72 51q66 29 94 31q27 -37 31 -111q229 86 463 111q16 -4 33 -2q-2 -6 -17 -16q-45 -41 -61 -76q-12 -31 -12 -90 q0 -61 -21 -88q-20 -31 -76 -52q-70 -27 -94 -30q6 182 113 274l-135 -26q-35 -8 -56.5 -12.5t-55.5 -12.5l-77 -18q6 -86 16 -291q6 -127 7 -213q175 37 430 37l2 -5q-12 -18 -73.5 -48.5t-86.5 -30.5q-33 0 -123 -4q-70 -4 -151 -13q-12 -555 -27 -573 q-20 -27 -75.5 -51.5t-94.5 -24.5q23 98 23 221q0 20 4 217q2 49 2 127q0 20 1 50t1 40q0 45 -17 410q0 12 -4 65q-2 37 -12 91q-19 65 -22 64z" />
<glyph unicode="&#xfb03;" horiz-adv-x="2101" d="M1796 8h2q0 2 1 9.5t4 15.5q0 2 1 10t2 23.5t1 31.5q0 18 4 74.5t6 93.5q9 154 12 277q4 164 4 215q0 162 -14 346q0 10 -4 47q0 4 -2 28.5t-4 39.5l-6 47q-2 12 -3 20q0 23 70 49q61 25 98 31q31 -261 31 -528q0 -82 -2 -148q-6 -215 -8 -252q-12 -342 -21 -352 q-25 -29 -73 -53q-59 -31 -95 -33q-4 4 -4 8zM950 1284q0 20 72 51q66 29 94 31q27 -37 31 -111q229 86 463 111q16 -4 33 -2q-2 -6 -17 -16q-45 -41 -61 -76q-12 -31 -12 -90q0 -61 -21 -88q-20 -31 -76 -52q-70 -27 -94 -30q6 182 113 274l-135 -26q-35 -8 -56.5 -12.5 t-55.5 -12.5l-77 -18q6 -86 16 -291q6 -127 7 -213q175 37 430 37l2 -5q-12 -18 -73.5 -48.5t-86.5 -30.5q-33 0 -123 -4q-70 -4 -151 -13q-12 -555 -27 -573q-20 -27 -75.5 -51.5t-94.5 -24.5q23 98 23 221q0 20 4 217q2 49 2 127q0 20 1 50t1 40q0 45 -17 410q0 12 -4 65 q-2 37 -12 91q-19 65 -22 64zM102 1284q0 20 72 51q66 29 94 31q27 -37 31 -111q229 86 463 111q16 -4 33 -2q-2 -6 -17 -16q-45 -41 -61 -76q-12 -31 -12 -90q0 -61 -21 -88q-20 -31 -76 -52q-70 -27 -94 -30q6 182 113 274l-135 -26q-35 -8 -56.5 -12.5t-55.5 -12.5 l-77 -18q6 -86 16 -291q6 -127 7 -213q175 37 430 37l2 -5q-12 -18 -73.5 -48.5t-86.5 -30.5q-33 0 -123 -4q-70 -4 -151 -13q-12 -555 -27 -573q-20 -27 -75.5 -51.5t-94.5 -24.5q23 98 23 221q0 20 4 217q2 49 2 127q0 20 1 50t1 40q0 45 -17 410q0 12 -4 65q-2 37 -12 91 q-19 65 -22 64z" />
<glyph unicode="&#xfb04;" horiz-adv-x="2613" d="M1796 1282q0 16 66 47q78 35 94 37q35 -25 47 -238q8 -154 13 -268q0 -27 1 -55.5t2 -45t1 -22.5q0 -190 -15 -434q231 0 389 -82v141q0 18 68 50q66 33 92 32q2 0 6 -2q0 -23 1 -58.5t1 -49.5v-82q0 -150 -12 -170.5t-72 -48.5q-68 -31 -92 -33q-4 4 -8 10l-10 15 q-16 20 -29 32q-104 113 -338 150v-60q0 -45 -10 -69q-8 -20 -69.5 -47t-96.5 -31l19 412q8 217 8 237q0 41 -17 412q0 12 -4 65q-2 35 -12 93zM950 1284q0 20 72 51q66 29 94 31q27 -37 31 -111q229 86 463 111q16 -4 33 -2q-2 -6 -17 -16q-45 -41 -61 -76q-12 -31 -12 -90 q0 -61 -21 -88q-20 -31 -76 -52q-70 -27 -94 -30q6 182 113 274l-135 -26q-35 -8 -56.5 -12.5t-55.5 -12.5l-77 -18q6 -86 16 -291q6 -127 7 -213q175 37 430 37l2 -5q-12 -18 -73.5 -48.5t-86.5 -30.5q-33 0 -123 -4q-70 -4 -151 -13q-12 -555 -27 -573 q-20 -27 -75.5 -51.5t-94.5 -24.5q23 98 23 221q0 20 4 217q2 49 2 127q0 20 1 50t1 40q0 45 -17 410q0 12 -4 65q-2 37 -12 91q-19 65 -22 64zM102 1284q0 20 72 51q66 29 94 31q27 -37 31 -111q229 86 463 111q16 -4 33 -2q-2 -6 -17 -16q-45 -41 -61 -76q-12 -31 -12 -90 q0 -61 -21 -88q-20 -31 -76 -52q-70 -27 -94 -30q6 182 113 274l-135 -26q-35 -8 -56.5 -12.5t-55.5 -12.5l-77 -18q6 -86 16 -291q6 -127 7 -213q175 37 430 37l2 -5q-12 -18 -73.5 -48.5t-86.5 -30.5q-33 0 -123 -4q-70 -4 -151 -13q-12 -555 -27 -573 q-20 -27 -75.5 -51.5t-94.5 -24.5q23 98 23 221q0 20 4 217q2 49 2 127q0 20 1 50t1 40q0 45 -17 410q0 12 -4 65q-2 37 -12 91q-19 65 -22 64z" />
</font>
</defs>
</svg>
